<svg width="40" height="41" viewBox="0 0 40 41" fill="none" xmlns="http://www.w3.org/2000/svg">
    <path d="M19.9987 3.83301C10.782 3.83301 3.33203 11.283 3.33203 20.4997C3.33203 29.7163 10.782 37.1663 19.9987 37.1663C29.2154 37.1663 36.6654 29.7163 36.6654 20.4997C36.6654 11.283 29.2154 3.83301 19.9987 3.83301ZM19.9987 33.833C12.6487 33.833 6.66536 27.8497 6.66536 20.4997C6.66536 13.1497 12.6487 7.16634 19.9987 7.16634C27.3487 7.16634 33.332 13.1497 33.332 20.4997C33.332 27.8497 27.3487 33.833 19.9987 33.833ZM25.982 12.1663L19.9987 18.1497L14.0154 12.1663L11.6654 14.5163L17.6487 20.4997L11.6654 26.483L14.0154 28.833L19.9987 22.8497L25.982 28.833L28.332 26.483L22.3487 20.4997L28.332 14.5163L25.982 12.1663Z" fill="#EC2D30"/>
    </svg>
    