<svg width="40" height="40" viewBox="0 0 40 40" fill="none" xmlns="http://www.w3.org/2000/svg">
<path opacity="0.5" d="M19.3387 2.16973C20.3074 2.00879 21.2973 2.10176 22.2605 2.26269C23.6762 2.50566 25.0621 2.89082 26.4527 3.24785C27.8894 3.63535 29.3301 4.00957 30.7644 4.40723C32.298 4.84785 33.866 5.26504 35.2574 6.07051C36.2996 6.67051 37.1699 7.60098 37.5816 8.7416C38.0934 10.1221 37.9285 11.6354 37.6535 13.0486C37.3285 14.6643 36.8746 16.2502 36.4527 17.8424C35.9277 19.7908 35.4027 21.7393 34.8777 23.6885C34.4426 25.2658 34.0433 26.8564 33.4887 28.3971C33.0379 29.6322 32.4355 30.8705 31.4121 31.733C30.4832 32.5268 29.2559 32.9119 28.0433 32.9119C26.3316 32.9205 24.6684 32.4533 23.0191 32.0471C21.4332 31.6314 19.8496 31.2057 18.2652 30.783C16.7777 30.3658 15.2699 29.9807 13.8598 29.3369C12.6683 28.7994 11.5574 27.9572 10.9723 26.7611C10.2824 25.4307 10.3441 23.8674 10.5918 22.4307C10.898 20.6932 11.3957 18.9979 11.8441 17.2939C12.548 14.6908 13.2433 12.0846 13.9543 9.48301C14.3238 8.17988 14.6832 6.8666 15.2402 5.62754C15.7129 4.57285 16.3918 3.56504 17.3777 2.92832C17.9676 2.54004 18.6394 2.27519 19.3387 2.16973ZM19.6402 4.65332C18.8121 4.79863 18.1519 5.41738 17.7738 6.14473C17.0808 7.44863 16.7301 8.89473 16.3207 10.3041C15.4621 13.4658 14.6105 16.6299 13.7629 19.7947C13.4379 21.0775 13.0762 22.3604 12.9457 23.6814C12.8832 24.3721 12.9012 25.1119 13.2551 25.7283C13.6066 26.365 14.2504 26.7611 14.891 27.0611C16.0238 27.5736 17.2285 27.8994 18.423 28.2322C20.3699 28.7588 22.316 29.2854 24.2699 29.7838C25.3082 30.0424 26.3527 30.2986 27.4207 30.3932C28.0871 30.4455 28.7949 30.4229 29.3957 30.0947C30.0543 29.7479 30.4668 29.09 30.773 28.4354C31.3473 27.176 31.6879 25.8291 32.066 24.5025C32.9793 21.1088 33.9129 17.7197 34.7973 14.3182C35.0465 13.333 35.2871 12.3393 35.3871 11.326C35.4504 10.6221 35.4324 9.86504 35.0605 9.2416C34.709 8.62754 34.0855 8.23926 33.4613 7.94707C32.273 7.40176 31.0012 7.07754 29.7488 6.71973C28.0894 6.27051 26.4285 5.82988 24.7668 5.39238C23.6676 5.1166 22.5691 4.82363 21.4449 4.66582C20.848 4.58613 20.2355 4.53769 19.6402 4.65332Z" fill="#4B4B4B"/>
<path d="M7.60614 10.4291C8.14677 10.4159 8.68739 10.4112 9.22723 10.4221C9.8913 10.4323 10.4577 11.0604 10.4147 11.7205C10.4007 12.3487 9.84364 12.9073 9.21395 12.9135C8.22489 12.9315 7.22802 12.8846 6.24755 13.0416C5.77255 13.1237 5.24442 13.2823 4.97958 13.7198C4.48817 14.5135 4.54989 15.4963 4.66395 16.3846C4.90458 18.0338 5.37255 19.6385 5.7827 21.251C6.59755 24.3143 7.3827 27.3846 8.22177 30.4416C8.53192 31.5416 8.84833 32.651 9.35848 33.6783C9.66708 34.2948 10.1116 34.8862 10.7593 35.1705C11.603 35.5479 12.56 35.4151 13.4429 35.2776C15.3163 34.9362 17.1397 34.3783 18.9788 33.8955C19.4304 33.7885 19.8968 33.5573 20.3655 33.7166C20.9569 33.8893 21.3616 34.5385 21.2241 35.1455C21.1358 35.6205 20.7546 36.0198 20.2835 36.1299C18.3327 36.6518 16.3921 37.2244 14.414 37.6393C12.9327 37.9346 11.3327 38.1127 9.89755 37.5237C8.7538 37.0682 7.84989 36.1463 7.27098 35.0744C6.45536 33.5721 6.03817 31.9002 5.57802 30.2659C4.71473 27.0174 3.85848 23.7674 3.00614 20.5166C2.60302 18.8823 2.14755 17.2401 2.08817 15.5479C2.04286 14.2565 2.36161 12.8971 3.22411 11.9049C3.85536 11.1729 4.78427 10.7752 5.7163 10.5979C6.33895 10.4799 6.97333 10.4424 7.60614 10.4291Z" fill="#4B4B4B"/>
<path opacity="0.5" d="M21.0473 10.5188C21.3169 10.4118 21.6169 10.4321 21.8911 10.5126C24.5106 11.2103 27.1301 11.9079 29.7489 12.6087C30.3942 12.7649 30.8169 13.4985 30.6294 14.1353C30.4739 14.7821 29.7411 15.2079 29.1012 15.0212C26.4559 14.3188 23.8106 13.6103 21.1653 12.9063C20.7075 12.7985 20.3434 12.4095 20.245 11.9532C20.1036 11.3595 20.4747 10.7157 21.0473 10.5188Z" fill="#4B4B4B"/>
<path opacity="0.5" d="M19.3328 16.8501C19.7758 16.6626 20.2383 16.865 20.6742 16.9689C21.8023 17.2751 22.9344 17.5665 24.0617 17.8751C24.5391 17.9939 24.907 18.422 24.9773 18.9048C25.0523 19.3931 24.8047 19.9126 24.3734 20.1556C24.0766 20.3376 23.7078 20.3736 23.3766 20.279C22.25 19.9775 21.1227 19.679 19.9969 19.3767C19.718 19.2931 19.4227 19.2525 19.1617 19.1173C18.7062 18.872 18.4344 18.3204 18.5312 17.8095C18.5984 17.3744 18.9242 17.0033 19.3328 16.8501Z" fill="#4B4B4B"/>
</svg>
