<svg width="150" height="151" viewBox="0 0 150 151" fill="none" xmlns="http://www.w3.org/2000/svg">
<rect width="150" height="150" transform="translate(0 0.015625)" fill="#EEEEEE"/>
<path opacity="0.5" d="M65.3277 35.5719C67.2243 35.5089 69.1223 35.5165 71.0193 35.5157C71.7486 35.5112 72.4125 36.114 72.4836 36.8382C72.5727 37.4932 72.1692 38.1703 71.5538 38.4069C71.2281 38.5491 70.8673 38.509 70.5218 38.514C68.5734 38.5194 66.6238 38.5081 64.6768 38.6003C63.6506 38.6525 62.6227 38.7335 61.6119 38.9238C60.8359 39.0727 60.0626 39.2909 59.3707 39.6818C58.6612 40.0808 58.0652 40.6769 57.6662 41.3863C57.286 42.058 57.0701 42.8079 56.9207 43.5609C56.7241 44.5776 56.6409 45.6123 56.5869 46.6452C56.492 48.6088 56.5037 50.5756 56.4983 52.5406C56.4934 52.8847 56.5334 53.2446 56.3913 53.5694C56.1429 54.2186 55.4052 54.6257 54.7236 54.484C54.0407 54.3697 53.4978 53.7282 53.5 53.0354C53.5036 50.7843 53.4847 48.5314 53.6035 46.283C53.7132 44.4427 53.9013 42.5681 54.6017 40.8456C55.1559 39.4699 56.111 38.2548 57.3378 37.4181C58.538 36.5904 59.9613 36.1562 61.3874 35.9169C62.6893 35.6992 64.0096 35.6196 65.3277 35.5719Z" fill="#78818E"/>
<path opacity="0.5" d="M94.6608 59.5434C95.2587 59.4008 95.9217 59.6747 96.2483 60.1943C96.4211 60.4575 96.4985 60.7751 96.4886 61.0882C96.4805 63.4414 96.5066 65.7973 96.3586 68.1474C96.2366 69.9063 96.0216 71.6959 95.3185 73.3293C94.7508 74.6609 93.7998 75.8278 92.5964 76.6353C91.3057 77.5081 89.7713 77.9314 88.2449 78.1568C86.445 78.4172 84.6231 78.4586 82.8074 78.4874C81.6221 78.5023 80.4362 78.5014 79.2504 78.5027C78.9908 78.5068 78.7245 78.5068 78.4789 78.4118C77.9472 78.2229 77.5486 77.7123 77.5004 77.1495C77.4406 76.6052 77.7101 76.0429 78.1707 75.7478C78.3975 75.5989 78.6656 75.5116 78.9373 75.5048C81.2019 75.494 83.4687 75.5224 85.7306 75.3942C86.6884 75.3348 87.6475 75.2457 88.5886 75.0509C89.3219 74.8966 90.0506 74.6717 90.6989 74.2875C91.3728 73.8894 91.9387 73.3113 92.322 72.6289C92.6814 71.9932 92.8937 71.287 93.0422 70.5753C93.2473 69.5703 93.3351 68.5455 93.3922 67.523C93.5051 65.3331 93.4804 63.1396 93.4903 60.9478C93.5024 60.2852 94.013 59.6774 94.6608 59.5434Z" fill="#78818E"/>
<path d="M78.6395 35.5546C78.9288 35.4871 79.2275 35.5217 79.5217 35.5132C81.8915 35.5217 84.2654 35.4975 86.6304 35.6792C88.2935 35.8173 89.9823 36.0656 91.51 36.7715C92.8623 37.39 94.0256 38.4148 94.7985 39.6861C95.4705 40.7829 95.8439 42.0353 96.0644 43.2949C96.3131 44.7277 96.391 46.1834 96.4377 47.6347C96.4886 49.4485 96.4863 51.2632 96.4823 53.0771C96.4679 53.849 95.7688 54.5198 94.9982 54.5081C94.2276 54.5333 93.5191 53.876 93.4889 53.1054C93.4754 50.8552 93.5056 48.6023 93.3818 46.3539C93.3256 45.4119 93.2415 44.4686 93.0597 43.5414C92.9072 42.7771 92.685 42.0164 92.2918 41.3384C91.8946 40.6519 91.3111 40.0748 90.6206 39.6843C89.9508 39.3037 89.2018 39.0869 88.45 38.9371C87.5067 38.7535 86.5476 38.669 85.5898 38.6136C83.3594 38.4931 81.125 38.5237 78.8928 38.5093C78.1775 38.4796 77.5495 37.8673 77.4973 37.1543C77.4127 36.4332 77.9323 35.7111 78.6395 35.5546Z" fill="#78818E"/>
<path d="M54.6637 59.5427C55.2526 59.4001 55.9094 59.6605 56.2414 60.1666C56.397 60.3969 56.4884 60.6714 56.4956 60.9503C56.5046 63.0957 56.4825 65.2424 56.5864 67.386C56.6391 68.3905 56.72 69.3959 56.9063 70.3856C57.0498 71.1315 57.2558 71.8747 57.6189 72.5459C58.0152 73.2854 58.6229 73.9098 59.3531 74.3241C60.0526 74.7236 60.8376 74.9436 61.6244 75.0943C63.1481 75.3741 64.701 75.4286 66.2458 75.4695C67.7771 75.5023 69.3085 75.4996 70.8402 75.501C71.2163 75.478 71.6045 75.573 71.9037 75.8087C72.4008 76.1776 72.6185 76.8713 72.421 77.4579C72.2384 78.0571 71.645 78.4993 71.0179 78.4993C69.474 78.5002 67.9305 78.502 66.3871 78.4723C64.862 78.4381 63.333 78.3805 61.821 78.1664C60.4948 77.9743 59.1677 77.6455 57.9859 76.9959C56.6323 76.2599 55.5198 75.0934 54.8441 73.7092C54.0573 72.1081 53.7977 70.3137 53.6565 68.5534C53.472 66.0386 53.5062 63.5149 53.4981 60.9953C53.49 60.3173 54.0015 59.683 54.6637 59.5427Z" fill="#78818E"/>
<path opacity="0.25" d="M84.5644 45.1721C85.2777 45.0744 86.0206 45.2057 86.6554 45.5455C87.2418 45.8693 87.7366 46.3669 88.0315 46.9709C88.3522 47.6057 88.4654 48.3414 88.355 49.0438C88.2233 49.8688 87.763 50.6345 87.1045 51.1464C86.6226 51.5315 86.0274 51.7676 85.4158 51.8365C84.5653 51.9302 83.6775 51.6912 83.0042 51.1592C81.9715 50.3883 81.4812 48.987 81.7762 47.7366C82.0732 46.4261 83.2228 45.3398 84.5644 45.1721Z" fill="#78818E"/>
<path d="M70.3738 52.9108C70.5527 52.7659 70.8125 52.7259 71.021 52.8295C71.2692 52.956 71.4389 53.1866 71.6058 53.4015C72.0521 54.0151 72.4696 54.6488 72.9035 55.2712C74.7327 57.9337 76.5575 60.5999 78.3811 63.2665C76.7284 65.3398 75.0553 67.3972 73.4222 69.4858C73.2801 69.6451 73.3222 69.9245 73.5219 70.0154C69.5184 70.0013 65.5146 70.0109 61.5111 70.0081C61.0112 70.0049 60.5081 70.0214 60.0113 69.9529C59.7764 69.9137 59.511 69.8492 59.3669 69.6415C59.2328 69.4554 59.2496 69.2052 59.3281 69.0003C59.4606 68.6508 59.6767 68.3418 59.8776 68.0296C63.1486 63.2537 66.4284 58.4841 69.6998 53.7085C69.9047 53.4279 70.0968 53.1273 70.3738 52.9108Z" fill="#78818E"/>
<path opacity="0.6" d="M81.078 59.8979C81.3109 59.6381 81.5771 59.2987 81.9673 59.3347C82.3576 59.3919 82.597 59.7461 82.8395 60.0211C84.6475 62.2962 86.4591 64.5681 88.2767 66.8357C88.6766 67.3428 89.0905 67.8391 89.4727 68.3599C89.6648 68.6336 89.8758 68.9202 89.9218 69.2605C89.9586 69.5459 89.7429 69.8092 89.4739 69.8809C88.9484 70.0366 88.3912 69.9998 87.8496 70.0082C86.1681 70.0102 84.487 70.0026 82.8055 70.0142C81.0311 70.0382 79.2563 70.0574 77.482 70.0434C76.294 70.0438 75.106 70.0422 73.918 70.0438C73.7867 70.0418 73.6474 70.0702 73.5233 70.0154C73.3236 69.9245 73.2816 69.6451 73.4237 69.4858C75.0568 67.3972 76.7299 65.3399 78.3826 63.2665C79.2844 62.1465 80.1734 61.0158 81.078 59.8979Z" fill="#78818E"/>
<path d="M25.058 110.876C24.8247 110.876 24.624 110.796 24.456 110.638C24.2973 110.47 24.218 110.269 24.218 110.036C24.218 109.802 24.2973 109.606 24.456 109.448C24.624 109.28 24.8247 109.196 25.058 109.196C25.2913 109.196 25.4873 109.28 25.646 109.448C25.814 109.606 25.898 109.802 25.898 110.036C25.898 110.269 25.814 110.47 25.646 110.638C25.4873 110.796 25.2913 110.876 25.058 110.876ZM30.6712 111.058C29.9339 111.058 29.3039 110.96 28.7812 110.764C28.2586 110.558 27.8432 110.325 27.5352 110.064L28.0812 109.14C28.1186 109.158 28.2539 109.238 28.4872 109.378C28.7299 109.508 29.0332 109.62 29.3972 109.714C29.7706 109.807 30.1626 109.854 30.5732 109.854C31.0772 109.854 31.4879 109.784 31.8052 109.644C32.1319 109.494 32.3419 109.331 32.4352 109.154C32.4819 109.042 32.5052 108.925 32.5052 108.804C32.5052 108.365 32.2626 107.824 31.7772 107.18C31.3012 106.526 30.5732 105.84 29.5932 105.122L30.2232 104.03C31.2592 104.814 32.0666 105.626 32.6452 106.466C33.2332 107.296 33.5272 108.076 33.5272 108.804C33.5272 109.14 33.4666 109.443 33.3452 109.714C33.1586 110.143 32.8226 110.474 32.3372 110.708C31.8519 110.941 31.2966 111.058 30.6712 111.058ZM33.1172 113.942C33.7145 113.736 34.2559 113.466 34.7412 113.13C35.2265 112.794 35.6045 112.434 35.8752 112.052C36.1552 111.669 36.2952 111.31 36.2952 110.974C36.2952 110.498 36.0572 109.331 35.5812 107.474L36.6592 107.068C36.8645 107.73 37.0325 108.43 37.1632 109.168C37.3032 109.905 37.3732 110.507 37.3732 110.974C37.3732 111.524 37.2099 112.061 36.8832 112.584C36.5565 113.116 36.1039 113.592 35.5252 114.012C34.9559 114.441 34.3119 114.782 33.5932 115.034L33.1172 113.942ZM39.0637 110.932C39.129 110.372 39.1617 109.424 39.1617 108.09C39.1617 106.82 39.1337 105.509 39.0777 104.156C39.031 102.793 38.975 101.911 38.9097 101.51L40.0297 101.272C40.0857 101.701 40.1417 102.639 40.1977 104.086C40.263 105.523 40.2957 106.89 40.2957 108.188C40.2957 109.494 40.263 110.456 40.1977 111.072L39.0637 110.932ZM49.2593 111.016C48.4193 111.016 47.752 110.708 47.2573 110.092C46.912 110.372 46.5246 110.605 46.0953 110.792C45.6753 110.978 45.176 111.072 44.5973 111.072C43.9626 111.072 43.4166 110.974 42.9593 110.778C42.502 110.582 42.082 110.344 41.6993 110.064L42.2453 109.14C42.6093 109.354 42.9593 109.532 43.2953 109.672C43.6313 109.802 44.0326 109.868 44.4993 109.868C45.2926 109.868 46.03 109.639 46.7113 109.182L46.6833 109.112L44.7233 104.534L45.7313 104.002L47.6493 108.538C47.836 108.995 48.046 109.312 48.2793 109.49C48.522 109.667 48.8486 109.756 49.2593 109.756H49.4133L49.4833 110.386L49.4133 111.016H49.2593ZM49.2757 109.756H50.0037C50.7504 109.756 51.287 109.658 51.6137 109.462C51.9497 109.266 52.1177 108.962 52.1177 108.552C52.1177 108.262 52.0244 107.819 51.8377 107.222C51.651 106.624 51.497 106.19 51.3757 105.92L52.3837 105.388C52.561 105.78 52.743 106.298 52.9297 106.942C53.1164 107.576 53.2097 108.118 53.2097 108.566C53.2004 109.368 52.9204 109.98 52.3697 110.4C51.819 110.81 51.0304 111.016 50.0037 111.016H49.2757V109.756ZM51.4877 102.532L52.4817 103.526L51.4877 104.52L50.4937 103.526L51.4877 102.532ZM61.5423 111.058C60.805 111.058 60.175 110.96 59.6523 110.764C59.1297 110.558 58.7143 110.325 58.4063 110.064L58.9523 109.14C58.9897 109.158 59.125 109.238 59.3583 109.378C59.601 109.508 59.9043 109.62 60.2683 109.714C60.6417 109.807 61.0337 109.854 61.4443 109.854C61.9483 109.854 62.359 109.784 62.6763 109.644C63.003 109.494 63.213 109.331 63.3063 109.154C63.353 109.042 63.3763 108.925 63.3763 108.804C63.3763 108.365 63.1337 107.824 62.6483 107.18C62.1723 106.526 61.4443 105.84 60.4643 105.122L61.0943 104.03C62.1303 104.814 62.9377 105.626 63.5163 106.466C64.1043 107.296 64.3983 108.076 64.3983 108.804C64.3983 109.14 64.3377 109.443 64.2163 109.714C64.0297 110.143 63.6937 110.474 63.2083 110.708C62.723 110.941 62.1677 111.058 61.5423 111.058ZM65.3927 113.914C66.718 113.624 67.7353 113.242 68.4447 112.766C69.1633 112.299 69.5927 111.72 69.7327 111.03C68.7247 111.039 67.9033 110.969 67.2687 110.82C66.634 110.661 66.1953 110.339 65.9527 109.854C65.8033 109.555 65.7287 109.205 65.7287 108.804C65.7287 108.318 65.8313 107.833 66.0367 107.348C66.2513 106.862 66.5313 106.461 66.8767 106.144C67.2313 105.826 67.6093 105.668 68.0107 105.668C68.5147 105.668 68.958 105.868 69.3407 106.27C69.7327 106.671 70.0453 107.184 70.2787 107.81C70.5213 108.435 70.6753 109.084 70.7407 109.756H71.2587L71.3287 110.386L71.2587 111.016H70.7267C70.568 112.024 70.0547 112.873 69.1867 113.564C68.328 114.254 67.1847 114.744 65.7567 115.034L65.3927 113.914ZM66.8487 109.154C66.998 109.387 67.3247 109.546 67.8287 109.63C68.342 109.714 68.9813 109.756 69.7467 109.756C69.6533 109 69.4527 108.342 69.1447 107.782C68.8367 107.222 68.4493 106.928 67.9827 106.9C67.7773 106.89 67.5767 106.974 67.3807 107.152C67.1847 107.329 67.026 107.558 66.9047 107.838C66.7833 108.118 66.7227 108.384 66.7227 108.636C66.7227 108.841 66.7647 109.014 66.8487 109.154ZM71.0683 109.756H72.3563C73.523 109.756 74.6103 109.616 75.6183 109.336C76.6357 109.046 77.653 108.631 78.6703 108.09C78.8663 107.978 79.0623 107.88 79.2583 107.796C78.6797 107.693 78.0543 107.474 77.3823 107.138C76.9343 106.904 76.533 106.727 76.1783 106.606C75.8237 106.484 75.4737 106.424 75.1283 106.424C74.7363 106.424 74.3817 106.54 74.0643 106.774C73.747 107.007 73.509 107.282 73.3503 107.6L72.5943 107.082C72.893 106.475 73.2617 106.018 73.7003 105.71C74.139 105.392 74.629 105.234 75.1703 105.234C75.5623 105.234 75.9263 105.299 76.2623 105.43C76.6077 105.56 77.1163 105.794 77.7883 106.13C78.4137 106.447 78.9037 106.685 79.2583 106.844C79.6223 106.993 80.033 107.114 80.4903 107.208L80.5323 108.314C80.3457 108.37 80.1497 108.444 79.9443 108.538C79.7483 108.631 79.4637 108.78 79.0903 108.986C77.8303 109.648 76.687 110.152 75.6603 110.498C74.643 110.843 73.5417 111.016 72.3563 111.016H71.0683V109.756ZM75.7163 112.15L76.7103 113.144L75.7163 114.138L74.7223 113.144L75.7163 112.15ZM81.3751 113.914C82.7284 113.615 83.7597 113.223 84.4691 112.738C85.1877 112.262 85.6077 111.669 85.7291 110.96C85.4304 111.025 85.0711 111.058 84.6511 111.058C84.0444 111.058 83.4937 110.964 82.9991 110.778C82.5044 110.582 82.1497 110.274 81.9351 109.854C81.7857 109.555 81.7111 109.205 81.7111 108.804C81.7111 108.318 81.8137 107.833 82.0191 107.348C82.2337 106.862 82.5137 106.461 82.8591 106.144C83.2137 105.826 83.5917 105.668 83.9931 105.668C84.5437 105.668 85.0291 105.91 85.4491 106.396C85.8691 106.881 86.1911 107.492 86.4151 108.23C86.6391 108.958 86.7511 109.676 86.7511 110.386C86.7511 111.543 86.3077 112.528 85.4211 113.34C84.5437 114.152 83.3164 114.716 81.7391 115.034L81.3751 113.914ZM82.8311 109.154C82.9711 109.378 83.2184 109.546 83.5731 109.658C83.9371 109.77 84.3524 109.826 84.8191 109.826C85.0897 109.826 85.3884 109.802 85.7151 109.756C85.6217 109 85.4211 108.342 85.1131 107.782C84.8144 107.222 84.4317 106.928 83.9651 106.9C83.7597 106.89 83.5591 106.974 83.3631 107.152C83.1671 107.329 83.0084 107.558 82.8871 107.838C82.7657 108.118 82.7051 108.384 82.7051 108.636C82.7051 108.841 82.7471 109.014 82.8311 109.154ZM96.1998 114.922C95.3971 114.922 94.6831 114.763 94.0578 114.446C93.4418 114.138 92.9564 113.694 92.6018 113.116C92.2471 112.537 92.0698 111.86 92.0698 111.086C92.0698 110.516 92.1631 109.914 92.3498 109.28C92.5364 108.645 92.7511 108.085 92.9938 107.6L93.9458 108.048C93.4231 109.149 93.1618 110.11 93.1618 110.932C93.1618 111.818 93.4231 112.495 93.9458 112.962C94.4684 113.428 95.2198 113.662 96.1998 113.662C96.7691 113.662 97.3058 113.587 97.8098 113.438C98.3231 113.288 98.7431 113.102 99.0698 112.878C99.3964 112.663 99.5831 112.472 99.6298 112.304C99.5831 112.201 99.4198 112.038 99.1398 111.814C98.8691 111.599 98.5284 111.37 98.1178 111.128C97.7071 110.885 97.2824 110.675 96.8438 110.498L97.1098 109.308C98.5564 109.606 99.7604 109.756 100.722 109.756H101.058L101.128 110.386L101.058 111.016H100.722C100.311 111.016 99.9518 110.997 99.6438 110.96C100.353 111.454 100.708 111.907 100.708 112.318C100.708 112.747 100.498 113.162 100.078 113.564C99.6671 113.965 99.1118 114.292 98.4118 114.544C97.7211 114.796 96.9838 114.922 96.1998 114.922ZM112.145 111.016C111.781 111.016 111.445 110.946 111.137 110.806C110.829 110.656 110.568 110.437 110.353 110.148C110.148 110.409 109.896 110.619 109.597 110.778C109.308 110.927 109 111.006 108.673 111.016H108.645H108.617C108.141 111.006 107.749 110.876 107.441 110.624C107.142 110.372 106.937 110.012 106.825 109.546C106.61 109.975 106.33 110.325 105.985 110.596C105.649 110.866 105.28 111.006 104.879 111.016H104.837C104.408 111.016 104.048 110.89 103.759 110.638C103.479 110.376 103.311 110.026 103.255 109.588C102.966 110.054 102.62 110.409 102.219 110.652C101.818 110.894 101.374 111.016 100.889 111.016H100.833L100.763 110.386L100.833 109.756H100.903C101.248 109.756 101.575 109.676 101.883 109.518C102.191 109.359 102.429 109.149 102.597 108.888C102.774 108.636 102.91 108.37 103.003 108.09C103.106 107.81 103.208 107.478 103.311 107.096L104.361 107.208C104.342 107.264 104.305 107.404 104.249 107.628C104.193 107.852 104.146 108.062 104.109 108.258C104.081 108.454 104.067 108.631 104.067 108.79C104.067 109.434 104.328 109.756 104.851 109.756H104.879C105.402 109.756 105.85 109.429 106.223 108.776C106.344 108.552 106.438 108.286 106.503 107.978C106.578 107.67 106.648 107.329 106.713 106.956L107.749 107.012C107.74 107.049 107.707 107.222 107.651 107.53C107.595 107.838 107.567 108.136 107.567 108.426C107.567 108.874 107.651 109.21 107.819 109.434C107.996 109.648 108.272 109.756 108.645 109.756C108.897 109.756 109.135 109.704 109.359 109.602C109.583 109.49 109.76 109.35 109.891 109.182C109.798 108.892 109.639 108.15 109.415 106.956L110.437 106.69C110.642 107.847 110.801 108.584 110.913 108.902C111.006 109.191 111.151 109.406 111.347 109.546C111.552 109.686 111.818 109.756 112.145 109.756H112.215L112.285 110.386L112.215 111.016H112.145ZM119.505 111.016C118.982 111.016 118.506 110.866 118.077 110.568C117.657 110.26 117.214 109.77 116.747 109.098L116.719 109.168C116.495 109.793 116.014 110.26 115.277 110.568C114.54 110.866 113.583 111.016 112.407 111.016H112.057V109.756H112.407C114.638 109.756 115.753 109.294 115.753 108.37C115.753 107.894 115.487 107.31 114.955 106.62C114.432 105.929 113.7 105.201 112.757 104.436L112.911 103.246L118.021 101.034L118.385 102.07L114.003 103.974C114.451 104.338 114.88 104.762 115.291 105.248C115.711 105.724 116.052 106.209 116.313 106.704C116.808 107.516 117.218 108.132 117.545 108.552C117.872 108.972 118.184 109.28 118.483 109.476C118.791 109.662 119.132 109.756 119.505 109.756H119.673L119.743 110.386L119.673 111.016H119.505ZM119.535 109.756H119.703C120.189 109.756 120.814 109.746 121.579 109.728C121.029 109.205 120.753 108.58 120.753 107.852C120.753 107.394 120.865 106.965 121.089 106.564C121.323 106.153 121.635 105.817 122.027 105.556C122.419 105.294 122.853 105.136 123.329 105.08C123.395 105.07 123.488 105.066 123.609 105.066C124.02 105.066 124.421 105.154 124.813 105.332C125.215 105.5 125.574 105.728 125.891 106.018L125.443 106.886C124.837 106.512 124.253 106.326 123.693 106.326C123.32 106.326 122.989 106.396 122.699 106.536C122.419 106.676 122.2 106.867 122.041 107.11C121.883 107.343 121.803 107.595 121.803 107.866C121.803 108.155 121.901 108.43 122.097 108.692C122.303 108.944 122.578 109.144 122.923 109.294C123.269 109.443 123.647 109.518 124.057 109.518C124.832 109.415 125.551 109.238 126.213 108.986L126.479 110.106C125.714 110.423 124.813 110.656 123.777 110.806C122.741 110.946 121.383 111.016 119.703 111.016H119.535V109.756Z" fill="#78818E"/>
</svg>
