<svg width="70" height="21" viewBox="0 0 70 21" fill="none" xmlns="http://www.w3.org/2000/svg">
<path d="M7.41406 20.3906C4.32031 20.3906 2.03516 19.1016 0.769531 16.7578L3.80469 14.625C4.63672 15.9609 5.84375 16.5703 7.47266 16.5703C9.25391 16.5703 10.4492 15.8438 10.4492 14.8359C10.4492 13.4531 8.1875 12.3633 6.20703 11.3789C4.08594 10.3242 1.75391 9.16406 1.75391 6.15234C1.75391 2.88281 4.51953 0.726562 7.98828 0.726562C10.5664 0.726562 12.6992 1.79297 13.5547 4.07812L10.7539 6.03516C10.1914 4.91016 9.10156 4.45312 8.04688 4.45312C6.62891 4.45312 5.57422 5.27344 5.57422 6.24609C5.57422 7.37109 7.00391 7.75781 9.17188 8.77734C12.3008 10.2539 14.2695 11.8477 14.2695 14.7539C14.2695 18.1992 11.457 20.3906 7.41406 20.3906ZM28.2969 20.0156L27.1016 17.3789H19.543L18.3359 20.0156H14.2344L23.2578 0.65625H23.375L32.4102 20.0156H28.2969ZM21.0195 14.1445H25.625L23.3281 9.09375L21.0195 14.1445ZM52.6016 0.65625H52.8125V20.0156H49.0156V11.7891L43.5781 19.6992H43.5547L38.1055 11.7891V20.0156H34.3086V0.65625H34.5195L43.5664 13.1367L52.6016 0.65625ZM56.1055 20.0156V1.125H62.7383C66.3945 1.125 69.3828 3.99609 69.3828 7.51172C69.3828 11.0156 66.3945 13.875 62.7383 13.875H59.9023V20.0156H56.1055ZM62.7383 10.125C64.3086 10.1367 65.5859 8.94141 65.5859 7.47656C65.5859 6.04688 64.3086 4.88672 62.7383 4.88672H59.9023V10.1133L62.7383 10.125Z" fill="#006EFD"/>
</svg>
