<svg width="56" height="57" viewBox="0 0 56 57" fill="none" xmlns="http://www.w3.org/2000/svg">
<path d="M21.8314 3.11347C21.808 2.79145 22.101 2.57095 22.2929 2.34961C22.3455 2.36126 22.4498 2.38373 22.5016 2.39537C22.2946 2.64584 22.1594 2.99532 21.8314 3.11347Z" fill="#4B4B4B"/>
<path d="M18.7272 4.25779C18.9893 4.19621 19.2413 3.98652 19.5134 4.13297C19.4549 4.24447 19.4341 4.38593 19.3331 4.46831C19.0844 4.52322 18.8248 4.72293 18.5828 4.53737C18.3541 4.68881 18.0595 4.69048 17.8609 4.89018C17.7499 4.88935 17.6406 4.88352 17.5312 4.87354C17.5363 4.80364 17.5463 4.66551 17.5513 4.59562C17.7366 4.57731 17.9694 4.59395 18.0312 4.37178C18.1363 4.36346 18.2415 4.3593 18.3475 4.35764C18.4126 4.41505 18.4701 4.54486 18.5778 4.49493C18.6379 4.4242 18.688 4.34516 18.7272 4.25779Z" fill="#4B4B4B"/>
<path d="M30.2525 4.79791C30.4078 4.77046 30.5496 4.82953 30.6882 4.89444C30.6782 4.99762 30.6665 5.1008 30.6523 5.20315C30.4028 5.28635 30.1541 5.04921 30.2525 4.79791Z" fill="#4B4B4B"/>
<path d="M28.0176 2.75711C28.1227 2.60483 28.2671 2.4925 28.4282 2.4043C28.3965 2.88525 28.5258 3.36204 28.4716 3.84216C28.414 4.02355 28.2638 4.17916 28.0643 4.18332C28.0768 3.70736 28.0702 3.23057 28.0176 2.75711Z" fill="#4B4B4B"/>
<path d="M33.6731 3.15316C33.7357 3.02003 33.8091 2.89272 33.8976 2.77539C33.9443 2.817 34.0378 2.90187 34.0845 2.94347C34.1605 3.15982 33.9777 3.29545 33.7991 3.36202C33.6722 3.38615 33.5437 3.39613 33.416 3.40778C33.4177 3.36451 33.4202 3.27798 33.421 3.23471C33.5053 3.20808 33.5888 3.18062 33.6731 3.15316Z" fill="#4B4B4B"/>
<path d="M18.3828 3.76588C18.5188 3.43554 18.7083 3.13266 18.9553 2.87305C19.1598 3.01534 18.9804 3.22336 18.8877 3.37397C18.755 3.54288 18.6257 3.76588 18.3828 3.76588Z" fill="#4B4B4B"/>
<path d="M14.9838 5.44592C15.1683 5.43594 15.3102 5.54994 15.4345 5.67059C15.3552 5.87279 15.311 6.08414 15.2993 6.30049C15.2576 6.30465 15.1733 6.3138 15.1316 6.31796C15.1349 6.17484 15.1324 6.03089 15.1124 5.88943C15.0765 5.86447 15.0047 5.81621 14.9697 5.79124C14.8395 5.71219 14.978 5.55493 14.9838 5.44592Z" fill="#4B4B4B"/>
<path d="M12.9789 9.62732C13.0331 9.619 13.14 9.60319 13.1934 9.5957C13.1759 9.82536 13.1533 10.055 13.1366 10.2847C13.0849 10.2905 12.9806 10.3022 12.9288 10.3088C12.9088 10.08 12.9539 9.85365 12.9789 9.62732Z" fill="#4B4B4B"/>
<path d="M44.9266 41.5605C45.6067 41.5622 46.2861 41.603 46.9671 41.5888C46.9988 41.6038 47.0622 41.6338 47.0939 41.6487C46.6057 41.7627 46.1 41.7128 45.6051 41.7694C45.3397 41.8002 45.0734 41.7727 44.8105 41.7378C44.8398 41.6937 44.8982 41.6046 44.9266 41.5605Z" fill="#4B4B4B"/>
<path d="M22.3038 3.99059C22.1419 3.63195 22.0409 3.16764 22.3831 2.87891C22.5583 3.19926 22.5617 3.57287 22.6952 3.90987C22.8195 4.2269 22.7778 4.60051 22.5199 4.83766C22.3872 4.56889 22.4356 4.25769 22.3038 3.99059Z" fill="#4B4B4B"/>
<path d="M25.5382 3.07422C25.8069 3.19903 25.8345 3.54768 25.9304 3.79731C26.3043 3.84723 26.6799 3.78982 27.0555 3.79398C26.9236 3.69413 26.7976 3.56099 26.6265 3.53936C26.4738 3.54269 26.3235 3.57098 26.1716 3.58513C26.1374 3.34881 26.4128 3.19238 26.6206 3.21318C27.0196 3.17823 27.3384 3.45865 27.6213 3.69663C27.6847 3.74905 27.7482 3.80064 27.8124 3.8514C27.8141 3.96706 27.8166 4.08355 27.8199 4.19921C27.2282 4.27493 26.6298 4.22417 26.0364 4.25746C25.6951 4.3207 25.3571 4.40141 25.0099 4.42721C24.8113 4.24414 24.8063 3.9837 24.8864 3.74239C24.9774 3.8048 25.0508 3.88718 25.1301 3.9629C25.2711 3.9604 25.4113 3.95707 25.5516 3.94875C25.5182 3.7607 25.4297 3.59261 25.3262 3.43452C25.3997 3.31636 25.4698 3.1957 25.5382 3.07422Z" fill="#4B4B4B"/>
<path d="M19.4416 4.48828C19.7712 4.65553 20.0166 5.02831 20.0016 5.39443C19.6944 5.66902 19.2746 5.74558 18.8966 5.87705C18.5903 6.02433 18.2573 6.12168 17.9819 6.32555C18.0094 6.61262 18.0103 6.91301 17.8484 7.1643C17.5321 7.46052 16.9629 7.46885 16.6758 7.13268C17.1265 7.19509 17.5487 6.89636 17.6873 6.47366C17.4569 6.53191 17.1648 6.59431 16.9938 6.38213C16.962 6.10671 16.8886 5.78385 17.0572 5.53922C17.1899 5.4818 17.3368 5.47681 17.4786 5.46516C17.6105 5.59164 17.7365 5.72394 17.8659 5.85292C17.9527 5.81963 18.0395 5.78635 18.1254 5.75223C18.0245 5.68067 17.9226 5.60995 17.8208 5.53839C17.81 5.20139 17.9001 4.80115 18.2748 4.70962C18.5202 4.90766 18.7606 5.11984 18.8949 5.41107C19.081 5.33286 19.2688 5.2563 19.4558 5.17809C19.4082 5.08656 19.3548 4.99752 19.3147 4.90266C19.3222 4.75705 19.3998 4.62558 19.4416 4.48828ZM18.1029 5.14064C18.0887 5.18058 18.0612 5.26047 18.047 5.30124C18.178 5.29874 18.309 5.29541 18.4401 5.28876C18.4092 5.11485 18.2406 5.13232 18.1029 5.14064Z" fill="#4B4B4B"/>
<path d="M42.2237 8.31683C42.3255 8.06137 42.6176 7.95653 42.8755 7.96319C42.8738 8.30268 42.5893 8.51986 42.4432 8.79861C42.3339 8.96253 42.2805 9.17971 42.0918 9.27457C41.9433 9.30869 41.7897 9.31035 41.6387 9.31867C41.7972 8.96337 42.0701 8.67546 42.2237 8.31683Z" fill="#4B4B4B"/>
<path d="M35.0558 34.7126C35.2186 34.5204 35.3821 34.3282 35.5582 34.1484C35.8144 34.3431 36.0423 34.572 36.2651 34.8033C36.1341 35.1145 35.8603 35.3175 35.6242 35.5439C35.4163 35.3849 35.2453 35.1869 35.0683 34.9972C34.8889 35.2102 34.6961 35.4132 34.4816 35.5913C34.2905 35.3483 34.0777 35.1212 33.9024 34.8665C33.8983 34.7234 34.0518 34.6477 34.1278 34.5445C34.2638 34.4322 34.3414 34.1992 34.5517 34.2275C34.747 34.3573 34.9048 34.5345 35.0558 34.7126Z" fill="#4B4B4B"/>
<path d="M29.8213 51.2114C29.9348 50.9934 30.1768 50.8536 30.4247 50.8827C30.7644 51.3154 30.6575 51.8788 30.7794 52.3805C30.8219 52.5794 30.9455 52.7483 31.0022 52.9422C30.9663 53.1036 30.8879 53.2525 30.7969 53.3907C30.4038 53.1752 30.4831 52.6593 30.2753 52.3381C29.9273 52.358 29.4582 52.0893 29.6151 51.6849C29.6752 51.5234 29.7428 51.3645 29.8213 51.2114ZM29.9949 51.471C29.9991 51.5143 30.0066 51.6008 30.0099 51.6441C30.1009 51.6807 30.1935 51.714 30.287 51.7464C30.2761 51.6582 30.2644 51.57 30.2536 51.4827C30.1668 51.4785 30.0808 51.4744 29.9949 51.471Z" fill="#4B4B4B"/>
<path d="M34.9348 3.22851C35.0959 3.22269 35.2587 3.22102 35.4214 3.22435C35.4381 3.46316 35.4197 3.71113 35.5591 3.92082C35.5107 3.80599 35.4348 3.72195 35.3313 3.66786C35.2745 3.87089 35.3705 4.04896 35.479 4.21205C35.4131 4.24367 35.348 4.27446 35.2829 4.30608C35.2203 4.52242 35.1251 4.72628 35.0066 4.91767C35.3029 4.76872 35.6442 4.75541 35.9681 4.79202C36.2309 4.91351 36.2768 5.24967 36.2743 5.50762C36.3453 5.5692 36.4229 5.62328 36.5005 5.67737C36.5272 5.55505 36.5589 5.43357 36.5915 5.31208C36.811 5.22471 37.0463 5.06079 37.29 5.17062C37.5562 5.28961 37.6606 5.58917 37.6305 5.86376C37.4553 5.76224 37.3151 5.60248 37.1231 5.53175C36.9011 5.50013 37.0538 5.78471 37.1481 5.83796C37.3226 5.99939 37.5512 6.07428 37.7757 6.13669C37.7023 6.22239 37.6289 6.30893 37.5596 6.39796C36.8994 6.41877 36.3278 6.02518 35.726 5.81383C35.0024 5.65157 34.3607 5.23469 33.6254 5.11903C33.103 5.00504 32.6022 4.78952 32.0714 4.72545C32.0522 5.05579 32.1649 5.43024 31.9588 5.72147L31.8678 5.7481C31.7151 5.50263 31.8069 5.19642 31.771 4.92349C31.7242 4.62893 31.9137 4.38929 32.0055 4.12634C32.0839 3.92414 32.2892 3.77187 32.5129 3.79767C32.8451 3.84926 32.9035 4.23868 33.0579 4.47998C33.3358 4.55321 33.5995 4.67469 33.8841 4.72296C33.7548 4.39095 33.2482 4.33354 33.2957 3.92747C33.7105 3.74108 34.1737 3.80099 34.6152 3.79933C34.6044 3.90584 34.5902 4.01235 34.5735 4.11802C34.3398 4.11802 34.1069 4.11386 33.8741 4.1305C34.0936 4.36515 34.3239 4.59731 34.4316 4.90768C34.5267 4.89104 34.6394 4.91767 34.7229 4.85609C34.8798 4.54905 34.8397 4.1979 34.9065 3.86923C34.9874 3.83261 35.0684 3.79683 35.1493 3.76022C35.0675 3.71612 34.9866 3.67285 34.9056 3.62875C34.9123 3.49478 34.9223 3.36165 34.9348 3.22851ZM35.0892 3.37829C34.9899 3.4848 35.1552 3.65704 35.2637 3.55303C35.3688 3.45068 35.1919 3.27844 35.0892 3.37829ZM32.0405 4.26447C32.1791 4.34768 32.3376 4.36183 32.4962 4.36765C32.5488 4.07891 32.1849 4.15547 32.0405 4.26447ZM35.1034 5.09573C35.3488 5.25966 35.6459 5.44438 35.953 5.35618C35.7853 5.03915 35.4114 5.03998 35.1034 5.09573Z" fill="#4B4B4B"/>
<path d="M34.4902 33.8631C34.4944 33.5261 34.8516 33.3447 35.0619 33.125C35.3131 33.2814 35.5067 33.5078 35.7162 33.7133C35.6194 34.0478 35.3215 34.2666 35.0619 34.4763C34.8791 34.2658 34.6279 34.1044 34.4902 33.8631Z" fill="#4B4B4B"/>
<path d="M28.6233 52.2773C28.8227 51.7939 28.9321 51.2305 29.3978 50.916C29.4028 51.1274 29.4103 51.3395 29.3986 51.5517C29.0414 52.1392 28.8169 52.7891 28.534 53.4115C28.3245 52.9771 28.2619 52.4804 27.9781 52.0818C27.8463 51.9087 27.7545 51.7115 27.666 51.5151C27.7495 51.3537 27.8304 51.1914 27.9064 51.0275C27.9506 51.0383 28.0382 51.0608 28.0816 51.0716C28.3612 51.4211 28.5006 51.8538 28.6233 52.2773Z" fill="#4B4B4B"/>
<path d="M23.9042 3.27734C24.1947 3.37054 24.4526 3.53113 24.6595 3.7558C24.5402 3.97464 24.4709 4.25589 24.2164 4.35907C24.0177 4.51633 23.7615 4.48139 23.5262 4.46974C23.31 4.01874 23.7006 3.64263 23.9042 3.27734ZM23.7974 3.76911C23.7657 3.8648 23.739 3.96216 23.7156 4.05951C23.8717 4.05452 24.0278 4.04537 24.1847 4.03954C24.178 4.00293 24.1655 3.93054 24.1596 3.89393C24.0386 3.85066 23.9184 3.80739 23.7974 3.76911Z" fill="#4B4B4B"/>
<path d="M15.6404 6.36474C15.6913 6.23411 15.8691 6.26323 15.9734 6.304C16.1303 6.39304 16.2897 6.49289 16.4049 6.63351C16.4575 6.78995 16.4099 6.95304 16.3865 7.10947C16.0452 7.2709 15.6763 7.38822 15.4084 7.66781C15.4384 8.03642 15.4643 8.45081 15.1806 8.73538C14.906 8.91928 14.5638 8.91179 14.25 8.85687C14.3109 8.64469 14.5646 8.63304 14.724 8.5232C14.9736 8.43084 15.0303 8.15042 15.1096 7.92825C14.9185 7.9865 14.729 8.0539 14.5262 8.04974C14.2642 7.77182 14.2692 7.37824 14.3652 7.03125C14.5179 7.02376 14.6723 7.01295 14.825 7.02709C14.9828 7.10364 15.1121 7.31749 15.3099 7.21598C15.597 7.02127 15.466 6.62602 15.6404 6.36474ZM15.7706 6.86816C15.8808 6.84986 15.9901 6.83072 16.0994 6.80908C16.0594 6.63351 15.718 6.64766 15.7706 6.86816ZM14.6147 7.43815C14.5129 7.56213 14.7341 7.69194 14.8158 7.57128C14.9135 7.44813 14.6973 7.32082 14.6147 7.43815Z" fill="#4B4B4B"/>
<path d="M43.3997 10.8018C43.6952 10.4224 43.9013 9.98222 44.2226 9.62109C44.382 9.62359 44.5423 9.62359 44.7034 9.63025C44.4505 10.0072 44.1417 10.3434 43.9264 10.7461C44.024 10.8468 44.1158 10.9533 44.2018 11.0648C44.1867 10.9225 44.1776 10.7802 44.1675 10.6379C44.4546 10.4823 44.9245 10.4132 45.1106 10.7536C45.1515 11.0972 45.0013 11.445 44.7326 11.6622C44.5873 11.8278 44.2977 11.8212 44.1575 11.6539C44.009 11.4792 43.8788 11.2903 43.7394 11.1089C43.3931 11.1388 42.9866 11.2004 42.7095 10.9366C42.4024 10.7394 42.2197 10.2327 42.5218 9.95643C42.6536 9.81414 42.8965 9.57783 43.0567 9.81081C42.9457 9.95726 42.692 10.0829 42.7613 10.3017C42.8923 10.5431 43.1193 10.7569 43.3997 10.8018ZM44.5857 10.7644C44.5982 10.9067 44.6024 11.0623 44.72 11.163C44.7493 11.0615 44.7701 10.9574 44.7893 10.8534C44.7234 10.816 44.6558 10.7869 44.5857 10.7644Z" fill="#4B4B4B"/>
<path d="M25.8906 14.4315C26.0183 14.2692 26.2445 13.9763 26.4665 14.156C26.5858 14.2684 26.6952 14.3907 26.8103 14.508C26.6868 14.6844 26.5299 14.8334 26.3772 14.984C26.1226 14.9365 25.8981 14.6886 25.8906 14.4315Z" fill="#4B4B4B"/>
<path d="M26.4964 51.4166C26.6049 51.2335 26.6976 51.018 26.9221 50.9539C26.9279 51.0604 26.9321 51.1686 26.9354 51.2768C27.0272 51.2942 27.1199 51.3076 27.2133 51.3167C27.2985 51.2077 27.3427 51.0771 27.3836 50.9473C27.6014 51.2452 27.4804 51.6055 27.3335 51.9042C27.0548 51.9275 26.776 51.9033 26.4981 51.9008C26.4597 52.3676 26.5707 52.8353 26.4898 53.3013C26.4422 53.3096 26.3479 53.3262 26.3003 53.3345C26.1526 53.0649 26.1901 52.7479 26.0783 52.4675C25.9915 52.2295 25.9473 51.9732 25.8012 51.7619C25.7512 51.6587 25.6518 51.568 25.6585 51.4474C25.7044 51.3267 25.7637 51.211 25.8188 51.0954C26.0733 51.1561 26.2127 51.4432 26.4964 51.4166Z" fill="#4B4B4B"/>
<path d="M29.1057 3.77129C29.2142 3.58989 29.3119 3.30698 29.5497 3.27952C29.9286 3.21378 29.9762 3.69723 30.1031 3.94686C30.3251 3.96267 30.5471 3.97765 30.7691 3.99678C30.7223 3.87863 30.6773 3.75964 30.6414 3.63815C30.7707 3.55993 30.9009 3.48172 31.0395 3.42014C31.1847 3.75464 31.1939 4.1241 31.1563 4.4819C30.7582 4.48772 30.3609 4.45277 29.9679 4.3887C29.8402 4.66496 29.6966 5.00445 29.3603 5.06852C28.9897 5.06603 28.6042 4.85967 28.4473 4.51268C28.6334 4.49937 28.802 4.57509 28.9747 4.63167C29.2084 4.64998 29.5255 4.57426 29.6065 4.32546C29.3227 4.298 29.0156 4.09248 29.1057 3.77129ZM29.4721 3.71803C29.3778 3.83369 29.5981 3.93438 29.6699 3.83369C29.7559 3.7147 29.5464 3.62983 29.4721 3.71803Z" fill="#4B4B4B"/>
<path d="M38.19 5.75588C38.2292 5.43969 38.538 5.21419 38.8485 5.22085C38.7934 5.56367 38.5847 5.85407 38.4837 6.18192C38.3919 6.47648 38.1583 6.83178 37.8027 6.7752C37.9129 6.42822 38.1232 6.11784 38.19 5.75588Z" fill="#4B4B4B"/>
<path d="M39.3734 5.97108C39.5411 5.92947 39.7139 5.88288 39.8875 5.91949C39.7331 6.34635 39.4769 6.72995 39.37 7.17512C39.542 7.25417 39.7155 7.33239 39.8925 7.40478C40.1253 7.27747 40.3765 7.1693 40.6486 7.21922C40.7454 7.47051 40.8063 7.74344 40.6895 8.00056C40.8898 8.15699 41.0993 8.30344 41.2854 8.47818C41.2829 8.37583 41.2812 8.27432 41.2795 8.17197C41.4239 8.06713 41.5925 8.02885 41.7703 8.03218C41.8137 8.41328 41.6935 8.79687 41.4139 9.06398C40.8497 8.78689 40.44 8.29845 39.9075 7.97892C39.6972 7.67937 39.2816 7.69435 39.0187 7.45803C38.8768 7.38314 38.9235 7.2134 38.9436 7.08858C39.0696 6.70915 39.3316 6.37714 39.3734 5.97108ZM40.1662 7.51212C40.1729 7.6361 40.1996 7.75759 40.3164 7.82665C40.4291 7.65358 40.3448 7.5504 40.1662 7.51212Z" fill="#4B4B4B"/>
<path d="M13.1416 6.86328C13.4445 7.20527 13.7433 7.55392 13.9995 7.93252C14.1122 8.09312 14.0487 8.29948 14.0538 8.48087C14.0112 8.48087 13.9261 8.47921 13.8827 8.47921C13.6206 8.11808 13.3602 7.75446 13.0606 7.42328C13.0589 7.23273 13.0898 7.04551 13.1416 6.86328Z" fill="#4B4B4B"/>
<path d="M41.3184 7.32502C41.4143 7.26677 41.502 7.16525 41.6246 7.17441C41.7123 7.23515 41.7991 7.29839 41.8834 7.36579C41.8158 7.47979 41.749 7.59462 41.6639 7.69696C41.5996 7.6304 41.5362 7.56383 41.4744 7.49643C41.4218 7.43985 41.3693 7.38243 41.3184 7.32502Z" fill="#4B4B4B"/>
<path d="M20.957 3.68945C21.1148 3.69278 21.2733 3.69361 21.4311 3.68945C21.4878 3.82925 21.4152 3.95489 21.351 4.07555C21.2241 4.05807 21.0964 4.04559 20.9687 4.03477C20.962 3.91994 20.9595 3.80511 20.957 3.68945Z" fill="#4B4B4B"/>
<path d="M21.6729 4.15594C21.7497 4.14262 21.9024 4.116 21.9792 4.10352C22.1445 4.41638 22.278 4.7667 22.2212 5.12699C22.0268 5.46982 21.6521 5.67534 21.284 5.78601C20.689 5.76771 20.4478 4.84408 20.8667 4.47962C20.8851 4.73175 20.8767 4.9847 20.8901 5.23683C21.2364 5.46066 21.5928 5.19689 21.8933 5.02797C22.0485 4.7667 21.6537 4.59528 21.6729 4.34066C21.6729 4.29407 21.6729 4.2017 21.6729 4.15594Z" fill="#4B4B4B"/>
<path d="M11.5271 8.16016C11.6923 8.27082 11.8275 8.41811 11.9485 8.57537C12.1705 8.8691 12.4493 9.1154 12.6529 9.42328C12.2565 9.93085 11.704 10.2812 11.2642 10.7463C11.0789 10.9818 10.73 10.9602 10.5489 11.2006C10.4154 11.382 10.1917 11.4128 9.98143 11.3978C9.90632 11.1732 9.83789 10.9227 9.96641 10.7022C10.0841 10.4834 10.0515 10.2337 10.0599 9.99659C10.2852 10.1181 10.4421 10.3278 10.6399 10.4867C10.5907 10.5083 10.4922 10.5524 10.4438 10.5741C10.8202 10.5741 11.0897 10.3103 11.3334 10.0582C11.3318 10.0299 11.3293 9.97329 11.3276 9.94417C11.1081 9.73365 10.8669 9.54476 10.6474 9.33341C10.6491 9.21941 10.6499 9.10625 10.6491 8.99308C10.5423 9.15867 10.4889 9.44325 10.2285 9.37252C10.17 9.20444 10.2176 9.03968 10.3236 8.90155C10.2043 8.78007 10.0724 8.67189 9.94805 8.5554C9.95139 8.50298 9.95723 8.3973 9.96057 8.34488C10.1826 8.41977 10.2527 8.65858 10.3486 8.8458C10.4154 8.74346 10.4705 8.49799 10.6307 8.64194C10.9879 9.0039 11.351 9.36253 11.6823 9.74946C11.8167 9.61882 11.9594 9.499 12.1138 9.39166C12.0587 9.07296 11.6856 8.99974 11.5404 8.73513C11.3743 8.5762 11.4945 8.34821 11.5271 8.16016ZM10.2886 10.5849C10.2485 10.6922 10.2126 10.8021 10.1826 10.9136C10.2685 10.8819 10.3528 10.847 10.4354 10.8079C10.3996 10.7255 10.3562 10.6465 10.2886 10.5849Z" fill="#4B4B4B"/>
<path d="M24.4946 51.7301C24.3118 51.4763 24.4428 51.1452 24.6148 50.9238C24.9803 51.2209 25.0462 51.711 25.1489 52.1404C25.1798 52.5431 25.2382 52.9591 25.1322 53.3552C24.9419 53.3627 24.9219 53.1713 24.9135 53.0274C24.881 52.5689 24.7358 52.122 24.4946 51.7301Z" fill="#4B4B4B"/>
<path d="M35.908 4.17383C36.0699 4.22292 36.3261 4.22459 36.3695 4.42678C36.3445 4.53662 36.221 4.59404 36.1367 4.65644C35.9573 4.63647 35.8671 4.46173 35.752 4.3469C35.7912 4.30363 35.8688 4.2171 35.908 4.17383Z" fill="#4B4B4B"/>
<path d="M17.3137 24.1772C17.3654 24.0474 17.4414 23.9276 17.5148 23.8086C17.5991 24.4826 17.4472 25.1524 17.4431 25.8264C17.3938 25.8156 17.2953 25.794 17.2461 25.7832C17.3579 25.2564 17.3471 24.7122 17.3137 24.1772Z" fill="#4B4B4B"/>
<path d="M26.7707 5.33277C27.0762 5.27536 27.365 5.14305 27.6788 5.12891C27.6654 5.2013 27.6529 5.27369 27.6412 5.34608C27.3307 5.40683 27.0303 5.53414 26.709 5.50834C26.724 5.46424 26.7557 5.37687 26.7707 5.33277Z" fill="#4B4B4B"/>
<path d="M29.9972 5.62739C30.2492 5.55833 30.4962 5.45016 30.7633 5.46181C30.7525 5.53503 30.7433 5.60825 30.7341 5.68148C30.4829 5.7314 30.235 5.79548 29.9805 5.82793C29.9846 5.778 29.993 5.67732 29.9972 5.62739Z" fill="#4B4B4B"/>
<path d="M40.1849 6.14419C40.5204 6.10342 40.8593 6.14253 41.1973 6.12838C41.1973 6.21159 41.1981 6.2948 41.1998 6.37801C40.8568 6.36137 40.5129 6.35471 40.1699 6.36387C40.1749 6.29064 40.1799 6.21742 40.1849 6.14419Z" fill="#4B4B4B"/>
<path d="M3.10236 30.82C2.95798 30.2533 2.91124 29.6625 2.90039 29.0801C2.94713 29.1192 3.03976 29.1966 3.08567 29.2348C2.95631 29.7607 3.11988 30.2899 3.10236 30.82Z" fill="#4B4B4B"/>
<path d="M37.3362 45.4203C37.3662 45.0026 37.4205 44.5833 37.5348 44.1797C37.4989 44.7355 37.4939 45.2922 37.5231 45.8489C37.5081 45.8805 37.4789 45.9446 37.4647 45.9762C37.3863 45.8014 37.3137 45.615 37.3362 45.4203Z" fill="#4B4B4B"/>
<path d="M33.5285 49.2988C33.7205 49.3438 33.9099 49.4419 33.9458 49.655C33.7789 49.6425 33.6128 49.6175 33.4492 49.5834C33.531 49.551 33.6128 49.5193 33.6954 49.4885C33.6403 49.4236 33.5853 49.3596 33.5285 49.2988Z" fill="#4B4B4B"/>
<path d="M45.3184 9.65419C45.6338 9.76735 45.9284 9.33966 46.1997 9.58513C46.1421 9.73324 46.0369 9.90215 45.8934 9.97205C45.6989 9.88135 45.406 9.87469 45.3184 9.65419Z" fill="#4B4B4B"/>
<path d="M44.6641 10.0156C44.7734 10.0181 44.8844 10.0239 44.9954 10.0339C45.0355 10.1571 45.0605 10.3077 45.1982 10.3601C45.4002 10.435 45.4285 10.6572 45.4828 10.8386C45.3785 10.8386 45.275 10.8344 45.1723 10.8269C45.1398 10.7387 45.1072 10.6513 45.0755 10.5648C44.8126 10.5099 44.6641 10.2727 44.6641 10.0156Z" fill="#4B4B4B"/>
<path d="M17.5989 13.9453C17.7099 14.1092 17.7908 14.2898 17.8267 14.4853C17.8392 14.3905 17.8517 14.2956 17.8634 14.2016C17.9536 14.2116 18.0445 14.2199 18.1355 14.2291C18.1438 14.5386 18.1505 14.8498 18.1238 15.1593C18.0954 15.3432 17.9168 15.409 17.77 15.478C17.6206 14.9879 17.5463 14.4571 17.5989 13.9453Z" fill="#4B4B4B"/>
<path d="M24.6832 10.2325C24.8484 10.0012 25.1472 9.89549 25.4151 9.82227C25.4451 10.4089 25.4184 10.9947 25.4193 11.5813C25.4184 11.9358 25.3775 12.2977 25.4769 12.6439C25.7932 12.6788 26.1512 12.7604 26.4408 12.5898C26.2747 12.3493 26.0544 12.1521 25.8883 11.9108C26.0352 11.7036 26.1804 11.4931 26.3448 11.2976C26.4174 11.2185 26.551 11.2751 26.5927 11.3633C26.8931 11.7502 26.9532 12.2769 26.8764 12.7487C26.7997 13.1024 26.6002 13.476 26.2422 13.6116C25.9158 13.7273 25.567 13.6624 25.2348 13.6158C25.0738 13.5917 24.9711 13.4477 24.8818 13.3262C24.5788 12.7637 24.694 12.1072 24.6732 11.4948C24.6873 11.0754 24.573 10.6452 24.6832 10.2325Z" fill="#4B4B4B"/>
<path d="M21.2696 10.7256C21.3815 10.719 21.5075 10.6699 21.6043 10.7523C22.0316 11.0468 22.509 11.279 22.8712 11.6576C23.1399 11.9164 23.4287 12.181 23.5656 12.5363C23.6064 12.8225 23.6448 13.1612 23.4354 13.395C23.2 13.6305 22.8153 13.7886 22.499 13.6147C22.2845 13.5306 22.1009 13.3576 21.8664 13.3368C21.621 13.3967 21.4149 13.5664 21.1636 13.6089C20.9058 13.6421 20.6479 13.6746 20.3892 13.6971C20.3466 14.0307 20.3307 14.4659 19.9427 14.5874C19.5846 14.5982 19.1498 14.4651 18.9921 14.1139C18.7884 13.8402 18.8452 13.4857 18.72 13.1837C18.5205 13.2236 18.3261 13.286 18.1366 13.3576C18.1283 13.6471 18.1283 13.9375 18.135 14.2279C18.044 14.2188 17.953 14.2105 17.8629 14.2005C17.8512 14.2945 17.8387 14.3894 17.8262 14.4842C17.7903 14.2887 17.7093 14.1081 17.5983 13.9442C17.484 13.5847 17.5191 13.1703 17.6492 12.8167C17.852 12.4165 18.3186 12.2966 18.7225 12.1993C18.7609 12.0928 18.801 11.9871 18.8377 11.8798C19.4528 12.2218 20.0311 12.7734 20.7889 12.6969C20.7422 12.5488 20.6454 12.409 20.6579 12.2475C20.7555 12.0462 20.8724 11.844 21.0768 11.7341C20.7989 11.4188 21.1695 11.0418 21.2696 10.7256ZM21.2212 12.0595C21.3105 12.2134 21.4073 12.3915 21.596 12.4348C21.7512 12.4922 21.9899 12.5779 22.0884 12.3865C22.1059 12.2184 21.9189 12.1435 21.8163 12.0462C21.6385 11.8889 21.4149 12.0112 21.2212 12.0595ZM22.4247 12.5438C22.4138 12.6237 22.4047 12.7044 22.3955 12.7843C22.5941 12.8966 22.8019 12.9914 23.0056 13.0963C23.0473 13.0355 23.089 12.9748 23.1307 12.9149C22.9346 12.7293 22.741 12.404 22.4247 12.5438ZM19.1356 13.0023C19.1957 13.2793 19.2633 13.5856 19.5129 13.757C19.6439 13.7986 19.7858 13.7836 19.9218 13.7952C19.8951 13.6837 19.9502 13.5157 19.8242 13.4524C19.5846 13.3176 19.371 13.1437 19.1356 13.0023Z" fill="#4B4B4B"/>
<path d="M28.9754 11.4854C28.9261 11.1001 29.2249 10.823 29.4711 10.5742C29.4995 10.6092 29.5562 10.6791 29.5846 10.7148C29.714 11.2341 29.7215 11.7758 29.8133 12.3C29.8358 12.6045 30.2598 12.8159 30.5085 12.6278C30.7522 12.4107 30.5953 12.0487 30.7514 11.7907C30.8649 11.4329 31.3022 11.3339 31.6352 11.378C32.1384 11.5744 32.2995 12.1377 32.5857 12.5438C32.7652 12.6877 33.0005 12.7019 33.2217 12.7002C33.1808 12.5488 33.109 12.4023 33.1082 12.2434C33.1474 12.0063 33.3636 11.8748 33.5338 11.7333C33.4812 11.6784 33.4287 11.6227 33.3769 11.5677C33.4804 11.2823 33.6139 11.0094 33.7133 10.7232C34.0463 10.6508 34.3075 10.912 34.5804 11.056C35.0311 11.4346 35.526 11.7824 35.8698 12.2684C36.116 12.523 36.0167 12.9049 36.0067 13.2219C35.9107 13.4433 35.6812 13.5964 35.4584 13.6813C35.0411 13.6904 34.6505 13.5015 34.3066 13.281C34.1756 13.3676 34.0438 13.4541 33.9002 13.5173C33.3869 13.7054 32.6984 13.7736 32.3145 13.3052C32.2828 13.3534 32.2511 13.4017 32.2202 13.4499C32.115 13.5897 31.9932 13.7819 31.7946 13.772C31.4215 13.8077 31.1728 13.4882 30.945 13.2469C30.6237 13.6055 30.0778 13.831 29.6263 13.5739C29.4052 13.4724 29.3459 13.2236 29.2767 13.0148C29.0563 13.2353 28.735 13.1479 28.4696 13.073C28.2059 12.989 27.9246 12.8076 27.918 12.5005C27.9697 12.2958 28.1032 12.1111 28.2501 11.9613C28.5005 11.8157 28.7601 11.6817 28.9754 11.4854ZM31.3389 11.943C31.2663 12.3857 31.4983 12.9449 31.9999 12.9873C32.0024 12.8126 32.0491 12.6287 31.9932 12.4606C31.8822 12.2734 31.742 12.1053 31.5976 11.943C31.5108 11.9422 31.4249 11.9422 31.3389 11.943ZM28.6224 12.3175C28.7993 12.3907 28.977 12.4764 29.1748 12.4589C29.1523 12.3066 29.1248 12.1552 29.0956 12.0046C28.9061 12.0537 28.6849 12.1036 28.6224 12.3175ZM33.7375 12.0229C33.7408 12.072 33.7483 12.1685 33.7516 12.2176C33.9586 12.394 34.2057 12.538 34.4886 12.5255C34.4986 12.4514 34.517 12.3033 34.5261 12.2284C34.3125 12.0179 34.0229 11.9805 33.7375 12.0229ZM34.9226 12.4107C34.8892 12.5313 34.8591 12.6528 34.8308 12.7743C35.0344 12.9066 35.2606 12.9956 35.4792 13.0988C35.6854 12.7402 35.1896 12.5247 34.9226 12.4107Z" fill="#4B4B4B"/>
<path d="M47.2253 13.6401C47.2995 13.6193 47.3755 13.6034 47.4531 13.5918C47.817 13.9837 48.0807 14.5337 47.968 15.0771C47.9405 15.3675 47.7911 15.6271 47.6576 15.8809C47.3938 15.8093 47.3621 15.5181 47.2403 15.3159C47.1301 15.0912 46.9457 14.9007 46.8789 14.6594C46.9866 14.3166 47.1184 13.982 47.2253 13.6401Z" fill="#4B4B4B"/>
<path d="M48.2924 15.0287C48.335 15.027 48.4209 15.022 48.4635 15.0195C48.8182 15.4164 49.0544 15.9573 49.0151 16.4948C48.9901 16.8693 48.7573 17.1755 48.5494 17.4709C48.5236 17.4659 48.4727 17.4567 48.4476 17.4526C48.254 17.163 48.1004 16.8493 47.9202 16.5523C47.7983 16.3975 47.835 16.1803 47.9185 16.0172C48.0679 15.6977 48.1881 15.3657 48.2924 15.0287Z" fill="#4B4B4B"/>
<path d="M50.2821 18.6484C50.5801 18.8223 50.7161 19.1743 50.8371 19.4805C50.9882 19.9448 51.2728 20.395 51.1952 20.9026C51.2127 21.3636 50.8755 21.7172 50.7086 22.1208C50.6402 22.2298 50.5383 22.4636 50.3764 22.3662C50.303 22.2048 50.2437 22.0384 50.1862 21.8711C49.9984 21.2978 49.8239 20.7195 49.6387 20.1454C49.6996 19.9515 49.8582 19.8092 49.9466 19.6295C50.0768 19.3665 50.1553 19.082 50.2362 18.8015C50.2479 18.7633 50.2704 18.6867 50.2821 18.6484Z" fill="#4B4B4B"/>
<path d="M21.9785 34.2285C22.0937 33.9248 22.3749 33.7259 22.6186 33.5254C22.9166 33.7201 23.1686 33.9847 23.3481 34.2917C23.1503 34.5056 22.9533 34.7211 22.738 34.9183C22.5844 34.9965 22.4776 34.7902 22.3658 34.7161C22.2381 34.5564 22.0077 34.4432 21.9785 34.2285Z" fill="#4B4B4B"/>
<path d="M22.7544 35.7344C22.8478 35.7518 22.9697 35.7061 23.0423 35.786C23.4429 36.1637 23.624 36.7054 23.7467 37.2272C23.9645 38.427 23.6106 39.676 22.8937 40.6496C22.6083 40.8185 22.3029 41.0423 21.9507 40.9782C21.4216 40.8934 20.7706 40.9708 20.375 40.5406C20.5962 40.2435 20.9701 40.1387 21.2855 39.9731C21.8255 39.6927 22.3796 39.4172 22.847 39.0228C23.1041 38.7657 23.3828 38.363 23.1475 38.0035C22.9213 37.5009 22.3529 37.3195 22.055 36.8785C22.2887 36.4974 22.5499 36.1321 22.7544 35.7344Z" fill="#4B4B4B"/>
<path d="M26.1435 35.9045C26.2252 35.7513 26.4706 35.6656 26.5808 35.8354C26.9355 36.3738 27.1725 36.9962 27.2568 37.6352C27.2935 38.6229 27.0849 39.663 26.4614 40.4543C26.3062 40.6524 26.1293 40.8912 25.8597 40.9203C25.3197 40.9212 24.7647 40.9869 24.2373 40.8421C24.1071 40.803 23.9727 40.7439 23.9068 40.6174C23.8968 40.4768 24.027 40.3786 24.1213 40.2938C24.4651 40.1024 24.8482 39.9875 25.1829 39.7779C25.7061 39.4259 26.3112 39.133 26.6417 38.5688C26.6985 38.3791 26.706 38.1578 26.5983 37.9847C26.3496 37.5312 25.8731 37.2649 25.5509 36.878C25.6736 36.5194 25.924 36.2115 26.1435 35.9045Z" fill="#4B4B4B"/>
<path d="M40.5879 9.875C40.8933 9.95904 41.2122 9.96154 41.5218 10.0273C41.5268 10.0772 41.536 10.1771 41.541 10.2261C41.2255 10.1904 40.91 10.1654 40.5962 10.1205C40.5937 10.0381 40.5904 9.95655 40.5879 9.875Z" fill="#4B4B4B"/>
<path d="M18.3223 21.7793C18.369 21.8018 18.4633 21.8459 18.51 21.8683C18.5518 22.9342 18.5509 24.0052 18.4842 25.0702C18.4842 25.4355 18.5117 25.8008 18.4858 26.1661C18.3657 25.8041 18.4074 25.4131 18.3373 25.0403C18.3064 23.9536 18.3365 22.866 18.3223 21.7793Z" fill="#4B4B4B"/>
<path d="M31.2869 33.7793L31.2952 33.8459C31.3503 34.2819 31.3078 34.7237 31.3537 35.1606C31.382 35.6748 31.5857 36.1699 31.5339 36.69C31.4905 37.0835 31.6316 37.5038 31.433 37.8707C31.4138 37.8274 31.3745 37.7409 31.3553 37.6985C31.3228 36.9379 31.4012 36.1732 31.2836 35.4185C31.2802 34.8727 31.2385 34.3243 31.2869 33.7793Z" fill="#4B4B4B"/>
<path d="M9.13444 12.2064C9.29217 12.0741 9.45575 11.9235 9.67441 11.916C8.81396 13.4113 7.97939 14.929 7.39268 16.5541C6.5748 18.6111 6.02898 20.7745 5.7736 22.9729C5.69265 23.4156 5.71769 23.8674 5.6793 24.3142C5.60585 24.8659 5.64341 25.4234 5.64675 25.9784C5.71602 26.6965 5.70433 27.4213 5.83119 28.1344C5.87709 28.4597 5.94386 28.7826 5.96222 29.1121C5.82869 29.4757 6.02398 29.8169 6.18004 30.1356C6.35864 30.5782 6.4446 31.0509 6.56061 31.5119C6.6641 31.7781 6.74088 32.0527 6.81849 32.3273C7.24579 33.3999 7.67059 34.4783 8.24144 35.4851C8.60699 36.0451 8.90243 36.6476 9.27298 37.2042C9.68275 37.7359 10.0516 38.3018 10.5232 38.7827C11.0131 39.3452 11.4846 39.9293 12.0521 40.4186C12.5053 40.8604 12.9668 41.2981 13.4918 41.6559C14.0109 42.0221 14.4799 42.4647 15.0524 42.7501C15.4831 42.9989 15.8945 43.2952 16.376 43.4424C17.5578 43.9359 18.803 44.277 19.9405 44.8745C20.7459 45.2589 21.5379 45.8089 21.9251 46.6377C22.032 46.9655 22.0211 47.32 21.9777 47.6578C21.8133 48.0972 21.618 48.5374 21.2917 48.881C21.0263 49.0424 20.7484 49.2197 20.4279 49.2338C20.0991 49.2496 19.7744 49.337 19.4439 49.3029C17.9551 49.1947 16.5505 48.6214 15.2177 47.984C14.6051 47.6304 13.9741 47.3067 13.3749 46.9306C12.6655 46.5137 12.0096 46.0153 11.3369 45.5435C10.8762 45.2339 10.5115 44.8104 10.0566 44.4942C9.52419 43.9692 8.96836 43.4624 8.51185 42.8691C8.01527 42.3316 7.5404 41.7733 7.15399 41.15C6.79262 40.744 6.54642 40.2572 6.23763 39.8145C5.67095 38.7935 5.11346 37.7626 4.68866 36.6733C4.18791 35.367 3.74809 34.0389 3.39924 32.6843C3.32579 32.0585 3.11298 31.4536 3.10129 30.8221C3.11882 30.292 2.95524 29.7628 3.0846 29.2369C3.0387 29.1986 2.94606 29.1212 2.89933 29.0821C2.84758 28.1627 2.86845 27.2341 2.89182 26.3121C3.00031 25.1056 3.14886 23.899 3.43012 22.7199C3.78648 21.367 4.14618 20.0015 4.74708 18.7334C5.34046 17.3171 6.10159 15.9741 6.96287 14.7044C7.23244 14.3582 7.42356 13.9513 7.74904 13.6501C8.17384 13.135 8.64287 12.6582 9.13444 12.2064Z" fill="#4B4B4B"/>
<path d="M45.0338 12.7435C45.0154 12.4889 45.1464 12.0895 45.4727 12.1735C45.8792 12.3 46.2706 12.508 46.5861 12.8001C46.6003 13.2111 46.652 13.6214 46.7647 14.0183C46.7196 14.1864 46.5135 14.2263 46.3757 14.2962C46.0261 14.3944 45.6071 14.3927 45.3 14.1764C44.9394 13.7894 45.0488 13.2245 45.0338 12.7435Z" fill="#4B4B4B"/>
<path d="M45.3223 14.5918C45.7938 14.6076 46.3154 14.6351 46.6876 14.9588C46.9171 15.3116 47.1683 15.6735 47.2343 16.0996C46.8187 16.3167 46.3154 16.1836 45.929 15.9648C45.6903 15.8674 45.6336 15.5936 45.5092 15.3948C45.3657 15.151 45.3314 14.8681 45.3223 14.5918Z" fill="#4B4B4B"/>
<path d="M46.0859 16.4321C46.4148 16.418 46.7428 16.4812 47.0707 16.4396C47.1943 16.4404 47.3303 16.3963 47.4488 16.4521C47.6825 16.6751 47.8052 16.9805 47.9495 17.2625C48.048 17.4797 48.1966 17.6844 48.2033 17.9315C47.7843 17.969 47.3678 17.8858 46.9581 17.8117C46.3438 17.6836 46.111 16.9846 46.0859 16.4321Z" fill="#4B4B4B"/>
<path d="M49.2248 16.7826C49.2941 16.7768 49.3642 16.7734 49.4351 16.7734C49.6579 17.1903 49.8273 17.6313 50.0043 18.0682C50.0677 18.4043 49.9592 18.7388 49.8616 19.0567C49.8023 19.2506 49.7289 19.4403 49.6337 19.6192C49.5803 19.6217 49.4743 19.6267 49.4209 19.6292C49.1981 19.3263 49.0721 18.9693 48.8993 18.6382C48.8017 18.4035 48.6556 18.168 48.7023 17.9034C48.8734 17.529 49.0996 17.1778 49.2248 16.7826Z" fill="#4B4B4B"/>
<path d="M18.3933 18.6037C18.8331 18.2085 19.2963 17.8407 19.7895 17.5137C19.8613 17.5578 19.9297 17.6085 19.9932 17.6651C19.9798 19.7146 20.0257 21.7648 19.9932 23.8151C20.0107 24.2711 19.9164 24.7645 20.1626 25.1773C20.3696 25.585 20.8945 25.5101 21.2759 25.5376C23.0402 25.5351 24.8053 25.5559 26.5696 25.5259C26.7407 24.5291 27.2456 23.6096 27.925 22.8665C28.4816 22.3914 29.1109 21.8938 29.8754 21.8672C30.2468 21.8289 30.6849 21.987 30.8326 22.354C30.9428 22.5728 31.0354 22.8108 31.0221 23.0604C31.0137 23.4199 31.0688 23.806 30.881 24.133C30.6465 24.6664 30.2743 25.1165 29.872 25.5326C31.2641 25.5492 32.657 25.5351 34.0499 25.5401C35.1524 25.5284 36.2715 25.6 37.3532 25.3454C38.0434 25.1307 38.7494 24.9634 39.4062 24.6564C38.9806 24.3718 38.4782 24.2453 38.0233 24.0198C37.5401 23.8409 37.0836 23.5272 36.552 23.5306C36.1305 23.4923 35.7324 23.7477 35.4971 24.0822C35.3518 24.2869 35.1048 24.3743 34.8611 24.3418C34.6984 23.6953 35.0372 23.0787 35.3894 22.562C35.7332 22.0935 36.1681 21.6658 36.7222 21.4561C37.3824 21.3946 37.9866 21.7116 38.5875 21.9329C39.1667 22.1451 39.7208 22.4164 40.2925 22.6469C40.8993 22.8374 41.4843 23.097 42.1152 23.2085C42.6127 23.3616 43.1343 23.3367 43.6467 23.3824C43.8829 23.5297 43.7427 23.8559 43.6475 24.0548C43.4005 24.5041 43.2369 25.0108 42.8997 25.4044C42.4925 25.585 42.0335 25.4186 41.6145 25.5509C40.3935 25.9378 39.4096 26.794 38.267 27.3415C37.6912 27.6136 37.1128 27.919 36.4718 27.9931C36.0796 28.0214 35.6949 28.1154 35.3009 28.1037C33.5508 28.1037 31.8016 28.1121 30.0515 28.0988C30.1249 28.3925 30.4153 28.5373 30.5781 28.7744C30.9879 29.262 31.2107 29.9435 30.9787 30.5618C30.8451 31.0868 30.3093 31.3381 29.8437 31.5087C29.3905 31.5519 28.9131 31.5694 28.4925 31.3664C27.95 31.0968 27.5711 30.6059 27.2214 30.1291C26.8667 29.5058 26.5529 28.8343 26.4995 28.1104C24.6209 28.0996 22.7423 28.1071 20.8628 28.1054C20.433 28.0996 19.979 28.1495 19.5825 27.9465C18.8748 27.6577 18.5852 26.8631 18.4842 26.1666C18.5101 25.8013 18.4826 25.4361 18.4826 25.0708C18.5493 24.0057 18.5502 22.9348 18.5085 21.8689C18.4617 21.8464 18.3674 21.8023 18.3207 21.7798C18.2422 20.8229 18.2055 19.8618 18.2097 18.9016C18.1871 18.766 18.314 18.6878 18.3933 18.6037ZM19.8822 20.7938C19.8471 21.5859 19.8488 22.3823 19.8813 23.1736C19.8989 23.1436 19.9339 23.0821 19.9514 23.0513C19.9898 22.4746 19.9498 21.8947 19.969 21.3172C19.9539 21.1433 20.0048 20.9386 19.8822 20.7938ZM28.818 23.9707C28.0835 24.1463 27.6796 24.8944 27.4175 25.5417C27.8615 25.5001 28.3439 25.6383 28.7579 25.4352C29.1034 25.1315 29.3279 24.678 29.3513 24.2179C29.2094 24.0847 29.0349 23.8917 28.818 23.9707ZM27.3783 28.0929C27.3708 28.6504 27.8006 29.0748 28.2104 29.3935C28.6928 29.7163 29.3588 29.941 29.9096 29.6656C29.948 29.2221 29.6 28.8909 29.2778 28.6438C29.0216 28.464 28.7979 28.2219 28.4916 28.1262C28.1219 28.0921 27.7497 28.0888 27.3783 28.0929Z" fill="#4B4B4B"/>
<path d="M46.7116 18.0527C46.881 17.9995 47.058 18.1426 47.2224 18.1892C47.5954 18.3922 48.0286 18.393 48.4408 18.3639C48.5185 18.5903 48.6103 18.8116 48.7021 19.0338C48.8598 19.4207 49.0559 19.7951 49.1552 20.2037C48.8915 20.2228 48.6278 20.2187 48.3657 20.1962C47.9852 20.1579 47.6129 20.0439 47.2833 19.8509C47.0471 19.459 46.8986 19.0238 46.7375 18.5977C46.6649 18.4255 46.6707 18.2308 46.7116 18.0527Z" fill="#4B4B4B"/>
<path d="M13.4291 20.635C13.5952 20.2706 13.7421 19.8013 14.1827 19.6973C14.5065 19.8396 14.8495 19.9768 15.0907 20.2473C15.6616 20.8522 16.1623 21.5212 16.5971 22.2293C16.9118 22.8459 17.2606 23.4733 17.3132 24.1773C17.3466 24.7123 17.3574 25.2565 17.2456 25.7832C17.1438 26.5945 16.7958 27.5181 15.9712 27.8352C15.5965 28.0332 15.1692 28.0939 14.7494 28.1006C14.1468 28.1081 13.5426 28.1364 12.94 28.0981C12.2089 28.0116 11.6214 27.4033 11.4687 26.6993C11.336 26.1834 11.3802 25.6476 11.4144 25.1234C11.4628 24.8005 11.4729 24.4269 11.7174 24.1823C11.8209 24.1315 11.9953 24.0358 12.0804 24.1615C12.3759 24.5026 12.3225 25.1009 12.7873 25.2931C13.2271 25.5727 13.7721 25.5269 14.2703 25.5402C15.0532 25.5161 15.9028 25.5694 16.5871 25.1209C16.583 24.8671 16.5195 24.605 16.3259 24.4269C15.9078 23.8711 15.3336 23.4708 14.7953 23.0431C14.5641 22.8501 14.3071 22.6936 14.05 22.5389C13.707 22.3209 13.3072 22.6903 12.9701 22.4232C12.9359 21.795 13.1971 21.205 13.4291 20.635Z" fill="#4B4B4B"/>
<path d="M47.3516 20.3242C47.6737 20.3317 47.9408 20.5497 48.2629 20.558C48.5776 20.5763 48.8939 20.5098 49.2068 20.5422C49.4505 21.0357 49.63 21.5599 49.8211 22.0758C49.9145 22.382 50.0489 22.6882 50.0297 23.0152C49.2569 23.1592 48.5917 22.6458 48.0301 22.1898C47.7179 21.8528 47.5627 21.4001 47.4217 20.9708C47.3407 20.7644 47.3616 20.5406 47.3516 20.3242Z" fill="#4B4B4B"/>
<path d="M51.2593 21.8066C51.6824 22.1253 51.7333 22.6729 51.8535 23.148C51.8735 23.5174 52.0171 23.8802 51.9486 24.2513C51.9211 24.5118 51.7826 24.7423 51.6565 24.9661C51.4754 25.254 51.2927 25.5727 50.9689 25.72C50.7235 24.8463 50.7519 23.9135 50.4414 23.0581C50.7135 22.6404 50.9263 22.1819 51.2593 21.8066Z" fill="#4B4B4B"/>
<path d="M48.1229 22.793C48.481 23.0143 48.8248 23.303 49.2563 23.3605C49.5659 23.3729 49.8772 23.3912 50.1827 23.4528C50.4097 24.3249 50.5816 25.2235 50.5541 26.1288C50.0834 26.1763 49.5592 26.1879 49.1511 25.915C48.6746 25.6479 48.3508 25.1619 48.2197 24.6402C48.1238 24.0295 48.0687 23.4104 48.1229 22.793Z" fill="#4B4B4B"/>
<path d="M51.6271 25.6031C51.7415 25.4341 51.8274 25.2128 52.0419 25.1504C52.3182 25.6555 52.2915 26.2504 52.2898 26.8079C52.2781 27.4287 52.127 28.1102 51.6271 28.5254C51.4802 28.6702 51.2549 28.9822 51.0638 28.7134C50.9887 28.1102 51.0713 27.4969 51.0229 26.8903C51.0262 26.664 50.9411 26.3844 51.1422 26.2146C51.3267 26.0299 51.4928 25.8269 51.6271 25.6031Z" fill="#4B4B4B"/>
<path d="M48.3737 25.8086C48.6333 25.8627 48.7651 26.124 48.9955 26.2371C49.4837 26.5542 50.0796 26.5791 50.6446 26.5866C50.7105 26.8828 50.6822 27.1882 50.7072 27.4886C50.7239 27.9321 50.7264 28.3764 50.7055 28.8199C50.6997 28.9373 50.6938 29.0554 50.688 29.1736C49.9661 29.3292 49.3293 28.8441 48.8711 28.3465C48.6625 28.0577 48.4822 27.7399 48.3879 27.3954C48.3303 26.8679 48.241 26.3328 48.3737 25.8086Z" fill="#4B4B4B"/>
<path d="M48.2206 28.2784C48.259 28.2742 48.3366 28.2659 48.375 28.2617C48.5503 28.4564 48.6538 28.7002 48.7998 28.9157C49.223 29.4217 49.9031 29.6721 50.5558 29.5656C50.5691 29.9742 50.5483 30.3836 50.5132 30.7913C50.4832 31.0442 50.4698 31.298 50.4531 31.5527C50.4631 31.8481 50.338 32.215 49.9966 32.25C49.3865 32.1834 48.7698 31.8672 48.4986 31.2955C48.1455 30.7272 48.1205 30.0374 48.1055 29.3892C48.1105 29.0164 48.113 28.6387 48.2206 28.2784Z" fill="#4B4B4B"/>
<path d="M51.7228 28.8726C51.8955 28.7461 52.0007 28.5248 52.2219 28.4707C52.2786 28.5822 52.3354 28.6962 52.3804 28.8144C52.3888 29.2604 52.3996 29.7064 52.3796 30.1524C52.4581 30.7257 52.0166 31.17 51.5859 31.4737C51.3497 31.6252 51.1277 31.8432 50.8281 31.8399C50.8323 31.73 50.8373 31.621 50.8423 31.5128C50.9183 30.8081 51.0485 30.1074 51.051 29.3968C51.2496 29.1905 51.4958 29.044 51.7228 28.8726Z" fill="#4B4B4B"/>
<path d="M38.3336 30.0794C38.5857 29.7666 38.8678 29.4778 39.1607 29.2032C39.265 29.0693 39.4027 29.224 39.4895 29.2939C39.7399 29.5136 39.9335 29.7874 40.1722 30.0195C40.2548 30.1219 40.3959 30.2159 40.3658 30.3673C40.1088 30.8449 39.7007 31.2144 39.3101 31.5814C38.9178 31.1994 38.5097 30.825 38.1959 30.3748C38.13 30.2575 38.2827 30.1701 38.3336 30.0794Z" fill="#4B4B4B"/>
<path d="M47.81 31.2843C47.8985 31.1928 48.0629 31.2103 48.1122 31.3351C48.3525 31.7403 48.5728 32.2238 49.0519 32.396C49.4016 32.599 49.8464 32.5075 50.1969 32.649C50.0575 33.3072 49.7938 33.9304 49.5668 34.562C49.4391 34.7974 49.4049 35.1186 49.162 35.2692C48.3826 34.978 47.7299 34.2857 47.5171 33.4769C47.4937 33.0267 47.482 32.5732 47.5655 32.1289C47.6022 31.8368 47.6832 31.5498 47.81 31.2843Z" fill="#4B4B4B"/>
<path d="M51.1481 32.1161C51.4694 31.9596 51.7222 31.6909 52.0544 31.5527C52.0786 32.0645 51.9175 32.5546 51.8608 33.058C51.6638 33.8992 51.0805 34.6132 50.356 35.0683C50.1733 35.184 49.8478 35.4245 49.7051 35.1466C49.8962 34.5782 50.2225 34.0615 50.3636 33.4765C50.341 33.3684 50.3051 33.2652 50.2751 33.1603C50.3035 33.2194 50.3611 33.3376 50.3903 33.3967C50.4954 33.1246 50.5956 32.8483 50.6381 32.5596C50.7041 32.3233 50.9578 32.2326 51.1481 32.1161Z" fill="#4B4B4B"/>
<path d="M41.1679 33.1015C41.3532 33.0599 41.5919 32.9085 41.7613 33.0482C41.7722 33.3819 41.7572 33.7164 41.7605 34.0518C41.0519 34.2947 40.3534 34.5627 39.649 34.8181C39.2067 34.9845 38.7827 35.2025 38.3212 35.3132C38.3337 35.6144 38.5557 35.8349 38.6809 36.0937C39.17 37.0032 39.0982 38.243 38.3329 38.9819C38.0917 39.1084 37.843 39.2573 37.5634 39.2657C37.2947 39.2723 37.0126 39.3672 36.7539 39.2565C36.5661 39.2107 36.4793 39.0244 36.375 38.8829C36.2473 39.0036 36.1446 39.1525 35.9952 39.2482C35.8075 39.2873 35.6088 39.2898 35.4219 39.2449C35.2475 39.175 35.1406 39.0077 35.0138 38.8787C34.8869 38.9861 34.7868 39.1192 34.6816 39.2465C34.483 39.2607 34.2802 39.2865 34.0841 39.2457C33.8813 39.1891 33.782 38.9869 33.6801 38.8222C33.565 38.9603 33.4657 39.1101 33.3496 39.2465C33.3171 39.2482 33.2528 39.2515 33.2203 39.2532C32.8898 39.2707 32.5576 39.2823 32.2271 39.2548C31.9576 39.1866 31.7289 38.9852 31.6187 38.7306C31.4885 38.4693 31.3425 38.169 31.4326 37.8727C31.6313 37.5058 31.4902 37.0856 31.5336 36.692C31.5854 36.1719 31.3817 35.6768 31.3533 35.1626C31.3074 34.7258 31.35 34.2839 31.2949 33.8479C31.602 33.5625 31.9234 33.2529 32.3348 33.129C32.4575 33.6781 32.3966 34.2415 32.4099 34.7981C32.3991 35.3806 32.445 35.9656 32.3665 36.5447C32.3406 36.8409 32.3807 37.138 32.4258 37.4309C32.4859 37.7388 32.8806 37.8578 33.1393 37.7188C33.3839 37.4883 33.2144 36.9816 33.6034 36.8784C33.7653 37.1563 33.8796 37.46 34.0557 37.7313C34.1992 37.7845 34.3728 37.7504 34.4847 37.6431C34.6466 37.44 34.6549 37.1655 34.7826 36.9458C34.8561 36.8701 34.9679 36.9316 35.0589 36.925C35.1014 37.1047 35.1365 37.2928 35.2341 37.4534C35.3568 37.5307 35.5112 37.5274 35.6472 37.5724C35.5037 37.5491 35.361 37.5199 35.2183 37.4983C35.2892 37.6963 35.512 37.8253 35.7132 37.7304C35.941 37.5258 35.931 37.2012 36.0345 36.935C36.1163 36.9142 36.1997 36.9017 36.2848 36.8975C36.3867 37.1064 36.4501 37.3302 36.5302 37.5482C36.6529 37.6972 36.8615 37.7629 37.0518 37.7587C37.4324 37.7596 37.8213 37.7779 38.1877 37.6564C38.2136 37.5066 38.2127 37.3477 38.1259 37.217C37.8413 36.7061 37.5334 36.2077 37.2313 35.7076C37.1228 35.5354 37.1828 35.3249 37.2354 35.1451C37.308 34.9263 37.3665 34.6925 37.5058 34.5052C37.9323 34.2897 38.3788 34.115 38.8395 33.986C39.609 33.674 40.401 33.421 41.1679 33.1015Z" fill="#4B4B4B"/>
<path d="M46.2973 35.4412C46.521 34.8379 46.7438 34.213 47.1627 33.7129C47.4014 34.079 47.4089 34.5367 47.6243 34.9136C47.8997 35.308 48.3612 35.4794 48.7776 35.6808C48.9237 35.7224 48.9037 35.8971 48.8478 36.0036C48.5882 36.5495 48.1926 37.0146 47.8888 37.5347C47.6852 37.8908 47.4415 38.2262 47.1544 38.5191C46.6111 38.0989 46.1579 37.5039 46.1103 36.7983C46.0494 36.3357 46.1663 35.8805 46.2973 35.4412Z" fill="#4B4B4B"/>
<path d="M17.7572 35.7883C18.0418 35.3648 18.4466 34.9987 18.954 34.8747C19.3204 34.7732 19.6667 34.9987 19.9438 35.2134C20.2793 35.4771 20.432 35.8923 20.4996 36.3001C20.4637 36.3408 20.3928 36.4224 20.3578 36.4632C20.0481 36.3508 19.7535 36.1994 19.4347 36.1137C18.8355 36.0471 18.1578 36.2094 17.7964 36.7253C17.6696 36.8617 17.728 37.0589 17.7213 37.227C18.4533 37.4009 19.2786 37.2919 19.933 37.7205C20.3052 38.1307 20.2501 38.7406 20.17 39.2515C20.0448 39.9979 19.4589 40.5995 18.7595 40.8516C17.8949 41.1761 16.9477 41.2893 16.0321 41.1737C15.1984 41.078 14.2929 40.6611 14.0041 39.8148C13.8673 38.8338 13.9716 37.7804 14.484 36.915C14.6017 36.9017 14.7185 36.8917 14.837 36.8867C14.8988 37.46 14.6242 37.9992 14.6693 38.5692C14.8137 39.1417 15.3812 39.4828 15.9203 39.6243C16.4085 39.799 16.9327 39.7533 17.4409 39.7608C18.0001 39.7649 18.5693 39.7699 19.1134 39.6251C19.3972 39.5419 19.6667 39.3871 19.8169 39.1242C19.0333 38.6299 18.0184 38.9578 17.2289 38.4976C17.0094 38.3071 16.9493 37.9942 16.9594 37.7146C16.9302 36.989 17.3241 36.34 17.7572 35.7883Z" fill="#4B4B4B"/>
<path d="M50.6947 35.2437C50.8382 35.1472 50.9851 35.0548 51.1437 34.9824C51.1562 35.0382 51.182 35.1505 51.1954 35.2063C50.8966 35.9776 50.592 36.7523 50.1664 37.4646C50.1956 37.5677 50.2248 37.6718 50.2573 37.7741C50.2181 37.7242 50.1397 37.6235 50.1004 37.5736C49.9327 37.7741 49.8259 38.0162 49.6614 38.2184C49.1332 38.4781 48.5172 38.5247 47.9355 38.5063C47.9489 38.3641 47.9239 38.206 48.0315 38.0928C48.6049 37.3123 49.0547 36.4536 49.5738 35.6381C49.9644 35.5715 50.3608 35.4675 50.6947 35.2437Z" fill="#4B4B4B"/>
<path d="M28.875 35.2957C29.0744 35.0195 29.4417 35.027 29.7388 35.1069C30.3547 35.4638 30.6276 36.2036 30.7252 36.8726C30.8813 38.1989 30.7361 39.6193 30.0058 40.7684C29.8039 41.0954 29.5593 41.4949 29.1279 41.5107C28.5837 41.529 28.0271 41.4483 27.523 41.2402C27.4212 41.1961 27.2676 41.0938 27.3419 40.9631C27.5046 40.7884 27.7266 40.6944 27.9453 40.6095C28.5603 40.3557 29.1404 40.0004 29.586 39.5003C29.8681 39.2632 30.0834 38.9528 30.1769 38.5942C29.5326 38.5634 28.8299 38.6008 28.2657 38.2355C27.9845 37.9751 28.0563 37.5707 28.0755 37.2304C28.1714 36.5322 28.4535 35.8599 28.875 35.2957ZM28.8249 36.9691C29.1671 37.0981 29.5285 37.1189 29.8907 37.0931C29.8498 36.7036 29.4742 36.489 29.1237 36.4241C28.8232 36.4008 28.7874 36.7486 28.8249 36.9691Z" fill="#4B4B4B"/>
<path d="M45.5058 36.7285C45.5601 36.7302 45.6669 36.7327 45.7212 36.7343C45.7988 37.2178 45.8255 37.7362 46.1201 38.1514C46.2762 38.4118 46.5866 38.5417 46.7243 38.8137C46.7218 39.0201 46.5641 39.1782 46.4339 39.3213C45.9432 39.8048 45.4891 40.3257 44.9792 40.7891C44.8916 40.8499 44.7539 40.978 44.6562 40.8674C44.2598 40.4147 44.3341 39.7831 44.3558 39.229C44.4376 38.4651 44.7414 37.7212 45.2379 37.1312C45.3348 37.0023 45.4149 36.8617 45.5058 36.7285Z" fill="#4B4B4B"/>
<path d="M47.3729 38.9297C47.9913 38.864 48.6247 38.9513 49.2248 38.7441C49.2164 39.1419 48.9285 39.4506 48.6948 39.7452C48.3268 40.2269 47.9746 40.7728 47.4079 41.0407C46.8946 41.2313 46.3405 41.2388 45.8047 41.3145C45.6386 41.337 45.4884 41.2504 45.334 41.2071C45.5877 40.831 45.9666 40.5714 46.2595 40.2303C46.6443 39.8092 47.0724 39.419 47.3729 38.9297Z" fill="#4B4B4B"/>
<path d="M42.448 40.5969C42.7209 39.9104 43.2141 39.3479 43.7316 38.832C43.7825 38.8553 43.8843 38.9011 43.9352 38.9244C44.032 39.5168 43.7883 40.1675 44.1397 40.7067C44.2423 40.9039 44.481 41.1486 44.3149 41.3741C43.81 41.8983 43.2091 42.3193 42.6349 42.7637C42.3587 42.7129 42.2994 42.3543 42.2093 42.1313C42.1651 41.6087 42.2702 41.0862 42.448 40.5969Z" fill="#4B4B4B"/>
<path d="M41.5215 40.9185C41.63 40.7862 41.8153 40.8328 41.9655 40.8145C41.9555 41.1148 41.8478 41.4027 41.8612 41.7048C41.8294 42.1475 42.0189 42.5577 42.1725 42.9613C42.17 42.9979 42.1641 43.0711 42.1616 43.1077C41.8445 43.3615 41.4889 43.562 41.1543 43.7917C40.8446 43.9897 40.5559 44.2385 40.1928 44.3334C40.1144 43.6328 40.1611 42.8989 40.4165 42.2373C40.727 41.7556 41.0633 41.2754 41.5215 40.9185Z" fill="#4B4B4B"/>
<path d="M45.6048 41.7691C46.0997 41.7125 46.6055 41.7624 47.0937 41.6484C46.7382 42.2675 46.2099 42.7801 45.609 43.1628C45.2577 43.4241 44.8003 43.3101 44.3972 43.3875C44.0191 43.3193 43.5752 43.3892 43.2664 43.1163C43.223 42.9315 43.4032 42.84 43.5268 42.7476C43.9098 42.5022 44.2453 42.191 44.57 41.8739C44.6409 41.8207 44.7077 41.7108 44.8103 41.7375C45.0732 41.7724 45.3395 41.7999 45.6048 41.7691Z" fill="#4B4B4B"/>
<path d="M39.111 42.6757C39.378 42.4927 39.6351 42.2747 39.9572 42.1973C39.933 42.5917 39.8421 42.9778 39.7803 43.368C39.7327 43.7549 39.7703 44.1469 39.8312 44.5305C39.711 44.7277 39.4957 44.835 39.3113 44.9631C38.9599 45.1778 38.6136 45.4108 38.2213 45.5464C38.102 45.5606 37.915 45.598 37.8699 45.4449C37.8441 44.8708 37.9242 44.2842 38.1228 43.7441C38.2998 43.2715 38.7429 42.9903 39.111 42.6757Z" fill="#4B4B4B"/>
<path d="M42.3167 43.7129C42.4895 43.5981 42.6856 43.5065 42.8934 43.4766C43.1814 43.5015 43.4443 43.6388 43.728 43.6887C44.1044 43.7844 44.4941 43.6962 44.8764 43.7453C44.8547 43.836 44.8597 43.9409 44.7963 44.0166C44.4516 44.421 44.0618 44.7946 43.607 45.0742C43.158 45.2173 42.6781 45.2614 42.2108 45.2007C42.1548 45.1923 42.043 45.1749 41.9871 45.1665C41.6341 45.1058 41.2577 45.0867 40.943 44.9003C40.8521 44.862 40.8512 44.758 40.832 44.6781C41.0073 44.5999 41.175 44.505 41.3236 44.3827C41.6366 44.1331 41.9879 43.9409 42.3167 43.7129Z" fill="#4B4B4B"/>
<path d="M35.973 44.7047C36.4254 44.178 36.9587 43.6038 37.7023 43.5605C37.7023 43.7802 37.6188 43.9824 37.5345 44.1805C37.4202 44.584 37.3659 45.0034 37.3359 45.4211C37.3134 45.6158 37.386 45.8022 37.4644 45.9769C36.8493 46.2748 36.2501 46.6052 35.6367 46.9056C35.5557 46.8207 35.423 46.7491 35.4397 46.6127C35.378 45.9362 35.6066 45.2663 35.973 44.7047Z" fill="#4B4B4B"/>
<path d="M33.4942 45.9712C33.9557 45.2773 34.7477 44.8895 35.5406 44.7031C35.5013 44.8413 35.4554 44.9786 35.3979 45.1117C35.2727 45.4071 35.1099 45.7025 35.1074 46.032C35.0957 46.3698 35.1007 46.7076 35.1007 47.0455C34.4773 47.2901 33.838 47.4898 33.1937 47.6687C32.9617 47.0896 33.2071 46.4805 33.4942 45.9712Z" fill="#4B4B4B"/>
<path d="M38.4141 46.1095C39.0525 45.8033 39.6384 45.3822 40.3069 45.1426C40.7976 45.3831 41.3276 45.5536 41.8759 45.5986C42.1838 45.6393 42.4951 45.6535 42.8064 45.6393L42.8757 45.6385C42.6971 45.9797 42.3291 46.1228 42.0345 46.3425C41.7232 46.553 41.3735 46.6969 41.0455 46.88C40.5556 46.9324 40.054 46.9491 39.5708 46.8376C39.2503 46.7768 38.9423 46.6587 38.6553 46.5072C38.5025 46.4323 38.4758 46.2484 38.4141 46.1095Z" fill="#4B4B4B"/>
<path d="M22.0407 45.7434C22.6032 45.6253 23.1799 45.8058 23.7274 45.939C24.279 46.1278 24.9509 46.4149 25.0794 47.0498C25.1562 48.5051 24.5895 49.8831 24.3024 51.2877C24.1714 51.8127 24.0287 52.3361 23.8776 52.8562C23.8192 53.055 23.8025 53.2722 23.6923 53.4519C23.356 53.5177 23.0222 53.4087 22.6892 53.3729C22.2268 53.2972 21.7461 53.3171 21.3004 53.1557C21.2028 53.1333 21.1419 53.05 21.0918 52.9735C21.1794 51.846 21.5466 50.7202 22.2469 49.819C22.3403 49.7308 22.3278 49.5993 22.3453 49.4837C21.9189 49.3098 21.5383 49.6942 21.106 49.6867C21.1744 49.4795 21.3806 49.3955 21.5458 49.2807C21.9414 49.0285 22.1676 48.5983 22.3912 48.2023C22.5147 47.6248 22.5715 46.9965 22.352 46.4349C22.2527 46.2019 22.125 45.9822 22.0407 45.7434Z" fill="#4B4B4B"/>
<path d="M30.8804 45.9609C31.5172 45.6746 32.2316 45.5839 32.9243 45.6414C32.8074 46.3253 32.5429 46.9877 32.5362 47.6883C32.603 47.9895 32.6364 48.3199 32.84 48.567C33.0478 48.8299 33.2231 49.1337 33.5277 49.2993C33.5844 49.36 33.6395 49.4241 33.6946 49.489C33.612 49.5198 33.5302 49.5514 33.4484 49.5838C33.1955 49.469 32.936 49.3642 32.6647 49.2976C32.5996 49.5397 32.7257 49.7627 32.8817 49.94C33.3883 50.4925 33.5218 51.2555 33.7338 51.9478C33.7697 52.3048 33.9408 52.6667 33.8106 53.0237C33.208 53.2034 32.5679 53.2059 31.9612 53.369C31.7075 53.4181 31.3595 53.4539 31.2134 53.1918C31.0189 52.502 30.8504 51.8064 30.6776 51.1107C30.4773 50.6031 30.464 50.0465 30.2662 49.5381C30.0308 48.6719 29.8656 47.774 29.9398 46.8712C30.0283 46.4011 30.4665 46.124 30.8804 45.9609Z" fill="#4B4B4B"/>
<path d="M37.1607 46.6606C37.3994 46.5774 37.6188 46.3968 37.8809 46.4109C38.188 46.6248 38.4618 46.906 38.8348 47.0076C39.2813 47.1889 39.7604 47.2522 40.2194 47.3912C40.1359 47.6433 39.8672 47.7365 39.6611 47.8663C39.2688 48.0552 38.8515 48.1833 38.4476 48.3439C38.1163 48.4912 37.7465 48.4096 37.3977 48.4088C37.3626 48.4354 37.2942 48.4879 37.26 48.5145C37.2833 48.4862 37.3309 48.4296 37.3543 48.4013C36.9829 48.1775 36.5573 48.0493 36.2009 47.7964C36.0315 47.6608 35.8838 47.501 35.7344 47.3454C36.1976 47.0949 36.6891 46.8952 37.1607 46.6606Z" fill="#4B4B4B"/>
<path d="M34.2186 47.9196C34.61 47.8006 34.9755 47.5984 35.382 47.5352C35.841 48.2383 36.6564 48.6443 37.4718 48.7683C37.516 48.8532 37.5577 48.9406 37.5961 49.0304C36.7732 49.4407 35.8101 49.5913 34.8988 49.4548C34.2303 49.3208 33.5918 48.9314 33.2246 48.3506C33.4975 48.0943 33.8864 48.0602 34.2186 47.9196Z" fill="#4B4B4B"/>
<path d="M46.5859 12.7988C47.0625 13.0027 46.9131 13.6376 46.7645 14.017C46.6519 13.6201 46.6001 13.2099 46.5859 12.7988Z" fill="#4B4B4B"/>
<path d="M19.9939 17.6641C20.2685 17.8055 20.1934 18.15 20.2101 18.4038C20.2234 20.1237 20.1433 21.8437 20.2034 23.5636C20.2076 24.1012 20.2126 24.6403 20.1634 25.1762C19.9172 24.7635 20.0115 24.2701 19.9939 23.8141C20.0265 21.7638 19.9806 19.7135 19.9939 17.6641Z" fill="#4B4B4B"/>
<path d="M11.1738 25.7313C11.1738 25.5125 11.1972 25.2379 11.4159 25.123C11.3816 25.6473 11.3374 26.1831 11.4701 26.699C11.4192 26.7265 11.319 26.7822 11.2681 26.8097C11.2506 26.4486 11.1947 26.0916 11.1738 25.7313Z" fill="#4B4B4B"/>
<path d="M47.2227 18.1895C47.5473 18.2211 47.8745 18.2069 48.2008 18.2219C48.3034 18.2161 48.3677 18.3084 48.4411 18.3642C48.0289 18.3933 47.5957 18.3925 47.2227 18.1895Z" fill="#4B4B4B"/>
<path d="M19.8832 20.793C20.0059 20.9378 19.955 21.1424 19.97 21.3164C19.9508 21.8938 19.9909 22.4738 19.9525 23.0504C19.9349 23.0812 19.8999 23.1428 19.8824 23.1728C19.8498 22.3814 19.8481 21.5851 19.8832 20.793Z" fill="#4B4B4B"/>
<path d="M50.7087 27.4883C50.8798 27.6738 50.9182 27.9359 50.9649 28.1748C51.01 28.4211 50.8247 28.6233 50.707 28.8196C50.7279 28.3761 50.7254 27.9318 50.7087 27.4883Z" fill="#4B4B4B"/>
<path d="M52.3817 28.8145C52.6521 29.1723 52.5878 29.6948 52.5511 30.1208C52.5085 30.1292 52.4234 30.1441 52.3809 30.1525C52.4009 29.7065 52.39 29.2605 52.3817 28.8145Z" fill="#4B4B4B"/>
<path d="M5.96241 29.1113C6.0008 29.2336 6.04503 29.3535 6.08843 29.475C6.1552 29.688 6.16354 29.9135 6.18023 30.1348C6.02417 29.8161 5.82888 29.475 5.96241 29.1113Z" fill="#4B4B4B"/>
<path d="M50.5152 30.791C50.5452 30.9025 50.5778 31.014 50.6095 31.1255C50.6445 31.0132 50.6821 30.9017 50.718 30.791C50.758 31.0307 50.8056 31.2703 50.8448 31.5116C50.8398 31.6198 50.8348 31.7288 50.8306 31.8386C50.6721 31.7895 50.5527 31.6805 50.4551 31.5524C50.4718 31.2978 50.4851 31.044 50.5152 30.791Z" fill="#4B4B4B"/>
<path d="M47.3501 32.1622C47.4044 32.1539 47.512 32.1372 47.5663 32.1289C47.4828 32.5732 47.4945 33.0267 47.5179 33.4769C47.2684 33.0866 47.356 32.5999 47.3501 32.1622Z" fill="#4B4B4B"/>
</svg>
