<svg width="56" height="46" viewBox="0 0 56 46" fill="none" xmlns="http://www.w3.org/2000/svg">
<g clip-path="url(#clip0_29637_12542)">
<path d="M16.0723 0.838396C28.5781 0.845244 41.0805 0.865789 53.5863 0.828125C53.5829 1.89297 53.5931 2.95782 53.6068 4.02267C52.3078 4.05691 51.0088 3.99871 49.7098 4.05349C49.5836 7.07342 49.6416 10.1002 49.7234 13.1201C49.5938 14.5924 49.6995 16.0647 49.7541 17.537C49.5427 22.1046 49.6484 26.679 49.7677 31.2465C48.2028 31.3801 46.6788 31.8937 45.3184 32.6778C44.1081 33.4242 43.4262 34.715 42.7409 35.91C42.8091 34.9855 42.85 33.9549 43.5626 33.2632C44.8888 31.6129 47.1084 31.3595 48.8438 30.346C49.1745 28.6135 48.9358 26.8296 48.9836 25.0766C49.0245 18.7936 48.9426 12.5141 49.0074 6.23112C49.079 5.3272 48.9051 4.15963 49.7677 3.57071C50.6269 3.18038 51.6259 3.2694 52.5123 2.95098C52.7885 2.58461 53.0067 2.17716 53.2419 1.78341C52.3078 1.5677 51.3565 1.37938 50.3951 1.37253C40.7293 1.3965 31.0636 1.39308 21.3978 1.37938C19.9386 1.38965 18.4589 1.24927 17.0133 1.51976C16.2223 3.24886 16.9042 5.29981 16.7405 7.15559C16.8564 8.23756 16.3689 9.6585 17.3065 10.4563C18.9157 10.8021 19.1714 8.99083 19.6692 7.92256C20.2693 6.21058 21.9501 4.98823 23.7503 4.9266C25.3459 4.85127 26.9518 4.82388 28.5406 4.98823C28.9361 4.91975 28.8986 5.42307 29.0554 5.6422C27.1188 5.73807 25.1686 5.56345 23.2389 5.73465C20.7023 6.20716 19.5158 8.96344 19.5567 11.3191C18.418 11.5383 17.2485 11.2917 16.0995 11.3225C16.0927 7.83011 16.1473 4.33425 16.0723 0.838396Z" fill="#00377F"/>
<path d="M17.0124 1.52129C18.458 1.2508 19.9377 1.39118 21.397 1.38091C31.0627 1.3946 40.7285 1.39803 50.3942 1.37406C51.3557 1.38091 52.3069 1.56922 53.2411 1.78493C53.0059 2.17869 52.7877 2.58614 52.5115 2.9525C51.6251 3.27093 50.6261 3.18191 49.7669 3.57224C48.9043 4.16116 49.0782 5.32873 49.0066 6.23265C48.9418 12.5156 49.0237 18.7951 48.9827 25.0781C48.935 26.8312 49.1737 28.615 48.843 30.3476C47.1076 31.3611 44.888 31.6144 43.5617 33.2648C42.8492 33.9564 42.8083 34.987 42.7401 35.9115C42.2286 38.613 42.4673 41.3693 42.4673 44.1016C33.6096 44.081 24.7553 44.1016 15.8976 44.0913C15.3077 43.5195 14.6838 42.9272 14.3122 42.1808C13.9167 40.5749 12.4984 39.6231 11.5676 38.3528C10.139 36.3908 8.28088 34.8124 6.79095 32.9053C5.05214 31.0974 3.51448 29.1047 1.72794 27.3413C1.21993 26.8038 0.653965 26.2012 0.671012 25.4C0.544863 23.438 0.643737 21.4658 0.691469 19.5005C3.51107 23.123 6.46024 26.8175 10.48 29.1663C11.005 29.4847 11.6153 29.5977 12.2085 29.721C13.5553 29.9778 14.752 30.7174 16.0919 31.0118C19.1604 31.8849 22.6994 31.3576 25.161 29.2485C27.401 27.3721 28.475 24.4652 28.9523 21.6541C29.1125 16.3196 28.9182 10.9783 29.0546 5.64373C28.8977 5.4246 28.9352 4.92128 28.5398 4.98975C26.951 4.82541 25.3451 4.8528 23.7495 4.92812C21.9493 4.98975 20.2685 6.21211 19.6684 7.92408C19.1706 8.99236 18.9149 10.8036 17.3057 10.4578C16.3681 9.66003 16.8556 8.23909 16.7397 7.15712C16.9033 5.30134 16.2215 3.25039 17.0124 1.52129Z" fill="#00377F"/>
<path d="M0.0605469 26.279C0.152602 23.355 -0.0315078 20.4206 0.149192 17.5C0.691293 17.9314 1.03224 18.5409 1.39705 19.1161C4.19278 23.5125 8.01476 27.2514 12.563 29.7886L12.2084 29.7201C11.6151 29.5968 11.0048 29.4838 10.4798 29.1654C6.46006 26.8166 3.5109 23.1221 0.691293 19.4996C0.643561 21.4649 0.544687 23.4371 0.670836 25.3991C0.653789 26.2003 1.21976 26.8029 1.72776 27.3404C3.51431 29.1038 5.05196 31.0965 6.79077 32.9044C8.2807 34.8115 10.1388 36.39 11.5674 38.3519C12.4982 39.6222 13.9165 40.574 14.312 42.1799C9.4024 37.0268 4.8474 31.5519 0.0605469 26.279Z" fill="#00377F"/>
<path d="M49.171 33.5174C50.8109 33.2229 52.6213 33.4421 53.9374 34.548C56.8831 36.866 56.7535 41.9643 53.743 44.1728C51.3257 46.0285 47.4015 45.3403 45.8638 42.6594C43.7363 39.4956 45.291 34.3665 49.171 33.5174Z" fill="#EC2D30"/>
</g>
<defs>
<clipPath id="clip0_29637_12542">
<rect width="56" height="44.169" fill="white" transform="translate(0 0.931641)"/>
</clipPath>
</defs>
</svg>
