<svg width="144" height="66" viewBox="0 0 144 66" fill="none" xmlns="http://www.w3.org/2000/svg">
<path d="M14.8281 54.25C8.64062 54.25 4.07031 51.6719 1.53906 46.9844L7.60938 42.7188C9.27344 45.3906 11.6875 46.6094 14.9453 46.6094C18.5078 46.6094 20.8984 45.1562 20.8984 43.1406C20.8984 40.375 16.375 38.1953 12.4141 36.2266C8.17188 34.1172 3.50781 31.7969 3.50781 25.7734C3.50781 19.2344 9.03906 14.9219 15.9766 14.9219C21.1328 14.9219 25.3984 17.0547 27.1094 21.625L21.5078 25.5391C20.3828 23.2891 18.2031 22.375 16.0938 22.375C13.2578 22.375 11.1484 24.0156 11.1484 25.9609C11.1484 28.2109 14.0078 28.9844 18.3438 31.0234C24.6016 33.9766 28.5391 37.1641 28.5391 42.9766C28.5391 49.8672 22.9141 54.25 14.8281 54.25ZM56.5938 53.5L54.2031 48.2266H39.0859L36.6719 53.5H28.4688L46.5156 14.7812H46.75L64.8203 53.5H56.5938ZM42.0391 41.7578H51.25L46.6562 31.6562L42.0391 41.7578ZM105.203 14.7812H105.625V53.5H98.0312V37.0469L87.1562 52.8672H87.1094L76.2109 37.0469V53.5H68.6172V14.7812H69.0391L87.1328 39.7422L105.203 14.7812ZM112.211 53.5V15.7188H125.477C132.789 15.7188 138.766 21.4609 138.766 28.4922C138.766 35.5 132.789 41.2188 125.477 41.2188H119.805V53.5H112.211ZM125.477 33.7188C128.617 33.7422 131.172 31.3516 131.172 28.4219C131.172 25.5625 128.617 23.2422 125.477 23.2422H119.805V33.6953L125.477 33.7188Z" fill="#006EFD"/>
<path d="M121.003 53.5V45.6289H123.498C125.021 45.6289 126.267 46.7715 126.267 48.168C126.267 49.5059 125.021 50.5947 123.498 50.5947H121.892V53.5H121.003ZM123.498 49.7207C124.533 49.7256 125.378 49.0225 125.378 48.1582C125.378 47.25 124.533 46.5078 123.498 46.5078H121.892V49.7158L123.498 49.7207ZM134.463 45.4824H134.561V53.5H133.672V48.1582L130.713 53.3682H130.703L127.739 48.1484V53.5H126.851V45.4824H126.953L130.708 51.7422L134.463 45.4824ZM139.349 53.6025C137.132 53.6025 135.311 51.7861 135.311 49.5693C135.311 47.3379 137.132 45.5166 139.354 45.5166C141.58 45.5166 143.401 47.3379 143.401 49.5693C143.401 51.7861 141.58 53.6025 139.349 53.6025ZM139.349 52.7041C141.087 52.7041 142.503 51.293 142.503 49.5645C142.503 47.8311 141.087 46.4102 139.349 46.4102C137.62 46.4102 136.209 47.8311 136.209 49.5645C136.209 51.293 137.62 52.7041 139.349 52.7041Z" fill="#006EFD"/>
</svg>
