<svg width="40" height="40" viewBox="0 0 40 40" fill="none" xmlns="http://www.w3.org/2000/svg">
<path d="M16.1618 2.84428C19.0547 2.2379 22.1047 2.3257 24.9516 3.11069C27.7672 3.88518 30.3766 5.34034 32.4751 7.30281C35.9477 10.5081 37.9719 15.1092 37.9094 19.7381C37.879 20.2942 37.3829 20.7827 36.8079 20.8353C36.2626 20.9058 35.7047 20.5741 35.5047 20.0863C35.4055 19.8574 35.4157 19.6045 35.4079 19.3621C35.3626 16.3347 34.3063 13.3306 32.4313 10.8976C31.5227 11.0994 30.6485 11.4949 29.9594 12.1058C29.4883 12.5126 29.1469 13.0326 28.7133 13.4739C27.6594 14.5966 26.3399 15.5715 24.7813 15.9167C23.4579 16.2229 22.0032 15.9677 20.8969 15.2C20.0758 14.6642 19.4719 13.8371 19.2305 12.9118C19.0204 12.2326 19.0297 11.5084 18.7962 10.836C18.6438 10.394 18.2274 10.1096 17.8071 9.9182C16.7915 9.4424 16.0157 8.54784 15.6727 7.51745C15.4462 6.87054 15.386 6.17936 15.436 5.50094C12.4883 6.38649 9.82584 8.12983 7.91256 10.4615C6.21803 12.5036 5.11334 14.9861 4.73209 17.5715C5.58912 18.1876 6.586 18.6477 7.64928 18.8083C8.24303 18.9028 8.84772 18.863 9.44694 18.8901C10.3743 18.9268 11.3141 18.9966 12.2024 19.275C12.8547 19.4792 13.4672 19.8289 13.9149 20.3325C14.3938 20.863 14.661 21.5392 14.7891 22.2236C15.1008 23.9084 14.7516 25.6428 15.1016 27.3231C15.3977 28.5126 15.9813 29.6263 16.1665 30.8443C16.3422 31.8634 16.2422 32.9403 15.7712 33.8769C17.018 34.2124 18.3079 34.4075 19.6032 34.4345C19.9993 34.4345 20.4368 34.4315 20.7571 34.6919C21.2618 35.0484 21.4055 35.7824 21.0555 36.2844C20.8297 36.6236 20.4235 36.848 20.0024 36.842C16.6376 36.845 13.2758 35.9212 10.436 34.1854C8.17194 32.8135 6.236 30.9478 4.81412 28.7692C3.27662 26.4225 2.34694 23.7111 2.13834 20.9456C1.88834 17.8341 2.536 14.6589 4.01334 11.8784C5.46881 9.11144 7.7235 6.74071 10.4547 5.09043C12.2024 4.03152 14.143 3.26604 16.1618 2.84428ZM18.0618 4.96585C17.8665 5.67129 17.8305 6.46979 18.2126 7.12495C18.4032 7.46191 18.7344 7.69606 19.0899 7.85591C19.9087 8.25216 20.6204 8.8863 21.0055 9.69381C21.3469 10.3752 21.4274 11.1362 21.5555 11.8732C21.6204 12.2537 21.718 12.6529 21.993 12.9493C22.5258 13.5129 23.3797 13.7591 24.1516 13.5917C25.1157 13.3899 25.9243 12.7857 26.604 12.1231C27.154 11.597 27.5766 10.9621 28.1422 10.4503C28.854 9.78837 29.7118 9.28105 30.6297 8.92608C29.3727 7.77861 27.9149 6.83302 26.3337 6.14784C23.7602 5.02964 20.8618 4.61989 18.0618 4.96585ZM4.5985 20.325C4.74147 23.3561 5.87819 26.3362 7.82975 28.7242C9.30553 30.5538 11.2399 32.0315 13.4126 33.0281C13.8852 32.2687 13.7891 31.3358 13.5352 30.5231C13.1821 29.3899 12.6696 28.2919 12.5251 27.1069C12.3821 25.8814 12.4626 24.6462 12.4133 23.4161C12.379 22.9531 12.3501 22.4668 12.1243 22.0465C11.9485 21.7216 11.5641 21.5887 11.2188 21.4994C10.2063 21.2563 9.15397 21.2938 8.11881 21.2623C6.8899 21.2135 5.68912 20.8623 4.5985 20.325Z" fill="#4B4B4B"/>
<path opacity="0.5" d="M25.3162 20.6439C27.0209 19.9475 28.9811 19.8582 30.7522 20.3768C32.4983 20.8818 34.0428 21.9873 35.0568 23.4417C36.0842 24.8968 36.5561 26.6995 36.3795 28.4488C36.2522 29.8124 35.7225 31.1317 34.8889 32.2402C35.7709 33.0867 36.6545 33.9325 37.535 34.7805C37.8162 35.0402 37.9568 35.4259 37.9022 35.7982C37.8451 36.3325 37.36 36.788 36.8029 36.8331C36.4264 36.8766 36.0381 36.743 35.7732 36.4818C34.8889 35.6338 34.0053 34.7843 33.1201 33.9362C31.8959 34.7903 30.4186 35.3044 28.9068 35.3877C27.2436 35.4882 25.5498 35.0762 24.1443 34.2147C22.6076 33.2848 21.4162 31.8409 20.8381 30.1862C20.2061 28.403 20.2889 26.3955 21.0748 24.6695C21.8811 22.8713 23.4334 21.3959 25.3162 20.6439ZM27.6186 22.4991C25.6529 22.7565 23.9068 24.1254 23.2451 25.9205C22.7865 27.128 22.8092 28.4983 23.3115 29.6908C23.7381 30.7145 24.5092 31.6008 25.4811 32.1877C26.4709 32.7925 27.6662 33.0755 28.8358 32.9869C30.0912 32.9013 31.3061 32.3775 32.2131 31.5407C33.0279 30.797 33.5975 29.8072 33.8115 28.746C34.0404 27.6368 33.8881 26.4571 33.3748 25.4379C32.8881 24.4616 32.0787 23.6376 31.0943 23.1107C30.0475 22.5456 28.8053 22.3317 27.6186 22.4991Z" fill="#4B4B4B"/>
</svg>
