<svg width="40" height="40" viewBox="0 0 40 40" fill="none" xmlns="http://www.w3.org/2000/svg">
<path d="M17.1264 3.60633C18.3193 3.60633 19.5123 3.59583 20.7045 3.60108C23.1303 3.61084 25.5615 3.58382 27.9803 3.79395C29.4514 3.93429 30.9381 4.17219 32.2896 4.77181C33.9568 5.49677 35.3029 6.85511 35.9896 8.48363C36.7865 10.3508 36.9186 12.3966 37.0162 14.3898C37.0951 16.3651 37.0771 18.3433 37.0826 20.32C37.0748 22.4964 37.0967 24.675 36.9482 26.8476C36.8232 28.4776 36.617 30.1369 35.9311 31.6476C35.36 32.9212 34.3896 34.0266 33.1693 34.7681C32.0053 35.4773 30.6537 35.8427 29.3021 36.0454C27.4936 36.3133 25.6584 36.3546 23.8318 36.3846C21.5646 36.4063 19.2975 36.4011 17.0303 36.3928C15.1506 36.3741 13.2662 36.3516 11.3975 36.1392C10.2092 35.9958 9.01699 35.7737 7.91309 35.3122C6.70215 34.8198 5.62871 34.0123 4.86074 32.9857C4.18105 32.0904 3.75605 31.039 3.49355 29.9651C3.17324 28.624 3.06074 27.2469 2.99277 25.875C2.90137 23.7992 2.92168 21.7204 2.91699 19.6431C2.92715 17.2461 2.89199 14.8446 3.10762 12.4544C3.26152 10.9182 3.52402 9.35643 4.25684 7.96581C5.0123 6.5099 6.32402 5.33767 7.88027 4.70052C9.33496 4.09114 10.9264 3.88176 12.4959 3.75568C14.0365 3.6386 15.5826 3.61909 17.1264 3.60633ZM12.335 6.17669C11.1334 6.29076 9.91699 6.46337 8.80215 6.93166C7.78574 7.36318 6.93652 8.14667 6.45527 9.11027C5.9459 10.1384 5.75215 11.2776 5.62637 12.4003C15.2084 12.4003 24.7904 12.4003 34.3725 12.4003C34.2131 11.033 33.9725 9.60033 33.1342 8.44761C32.4787 7.54104 31.4553 6.93316 30.3607 6.63373C28.774 6.19095 27.11 6.11665 25.4686 6.05211C23.3061 5.98532 21.1428 6.00633 18.9803 6.00033C16.7646 6.01384 14.5443 5.98907 12.335 6.17669ZM5.47012 14.8003C5.40605 16.5639 5.42246 18.3283 5.41621 20.0926C5.4248 22.2472 5.39824 24.4048 5.53496 26.5572C5.62715 27.794 5.75371 29.0465 6.17324 30.227C6.42715 30.9564 6.84277 31.6401 7.42324 32.1744C8.44355 33.1403 9.88887 33.5035 11.2654 33.7009C13.4334 33.9906 15.6287 33.9748 17.8123 33.9981C20.3389 33.9906 22.8662 34.0228 25.392 33.9501C27.099 33.8833 28.8357 33.8142 30.4795 33.3287C31.6311 33.0007 32.6834 32.2983 33.3068 31.3009C34.0162 30.1692 34.2318 28.8319 34.3803 27.5395C34.6037 25.2656 34.5693 22.9782 34.5818 20.6975C34.5779 18.732 34.5967 16.7651 34.5287 14.8003C24.8428 14.8011 15.1561 14.8003 5.47012 14.8003Z" fill="#4B4B4B"/>
<path opacity="0.5" d="M11.4987 20.412C12.1191 20.3842 12.7417 20.4022 13.3636 20.4022C13.9081 20.4015 14.4058 20.7947 14.5409 21.296C14.7558 21.982 14.1839 22.7557 13.4409 22.7925C12.8667 22.812 12.2909 22.7962 11.7159 22.8C11.1909 22.8225 10.68 22.493 10.4956 22.0225C10.1964 21.3351 10.73 20.4863 11.4987 20.412Z" fill="#4B4B4B"/>
<path opacity="0.5" d="M18.1417 20.4162C18.394 20.3884 18.6487 20.4019 18.9026 20.4004C22.0565 20.4019 25.2104 20.3959 28.3643 20.4034C29.0722 20.3974 29.6745 21.0676 29.5745 21.7393C29.5136 22.3449 28.9143 22.8342 28.2823 22.8012C24.9745 22.8012 21.6659 22.8027 18.3581 22.8004C17.7089 22.8237 17.1058 22.2916 17.0854 21.6665C17.0362 21.0698 17.5261 20.4942 18.1417 20.4162Z" fill="#4B4B4B"/>
<path opacity="0.5" d="M11.5139 26.8117C12.1287 26.7854 12.7459 26.8019 13.3615 26.8027C13.8514 26.8042 14.3084 27.1194 14.4904 27.5524C14.7193 28.0605 14.5092 28.6946 14.0287 28.9956C13.5826 29.3002 13.0092 29.1757 12.499 29.2004C12.0037 29.1742 11.4537 29.2965 11.0115 29.0188C10.6139 28.7922 10.3756 28.3404 10.4217 27.8984C10.4584 27.3483 10.9443 26.8672 11.5139 26.8117Z" fill="#4B4B4B"/>
<path opacity="0.5" d="M18.2315 26.8053C21.5823 26.7888 24.9346 26.8023 28.287 26.7986C28.7432 26.7828 29.194 27.0229 29.4167 27.4072C29.7034 27.8627 29.6081 28.4961 29.2018 28.8578C28.9627 29.0897 28.6221 29.2076 28.2838 29.2001C24.9776 29.1993 21.6713 29.2001 18.3651 29.1993C17.8167 29.2173 17.2846 28.8488 17.1346 28.3415C16.8909 27.6436 17.469 26.8398 18.2315 26.8053Z" fill="#4B4B4B"/>
</svg>
